<svg width="442" height="443" viewBox="0 0 442 443" fill="none" xmlns="http://www.w3.org/2000/svg">
<path fill-rule="evenodd" clip-rule="evenodd" d="M205.617 243.671L205.617 56.936C205.617 42.9659 193.636 31.6429 178.858 31.6429L153.58 31.6429C138.803 31.6429 126.822 42.9659 126.822 56.936L126.822 243.671C126.822 257.641 138.803 268.964 153.58 268.964H178.858C193.636 268.964 205.617 257.641 205.617 243.671" fill="#FF6384"/>
<path fill-rule="evenodd" clip-rule="evenodd" d="M79.5454 227.512L79.5454 25.6304C79.5454 11.474 67.5653 0 52.7882 0L27.511 0C12.731 0 0.750946 11.474 0.750946 25.6304L0.750946 227.512C0.750946 241.666 12.731 253.143 27.511 253.143H52.7882C67.5653 253.143 79.5454 241.666 79.5454 227.512" fill="#50E3C2"/>
<path fill-rule="evenodd" clip-rule="evenodd" d="M331.688 417.547L331.688 104.56C331.688 90.5045 319.708 79.1071 304.931 79.1071L279.653 79.1071C264.873 79.1071 252.893 90.5045 252.893 104.56L252.893 417.547C252.893 431.605 264.873 443 279.653 443H304.931C319.708 443 331.688 431.605 331.688 417.547" fill="#4080FF"/>
<path fill-rule="evenodd" clip-rule="evenodd" d="M442 179.566L442 26.1124C442 11.6925 430.019 0 415.245 0L389.964 0C375.186 0 363.206 11.6925 363.206 26.1124V179.566C363.206 193.989 375.186 205.679 389.964 205.679H415.245C430.019 205.679 442 193.989 442 179.566" fill="#FFB74D"/>
</svg>
