<svg width="379" height="379" viewBox="0 0 379 379" fill="none" xmlns="http://www.w3.org/2000/svg">
<circle cx="2.40741" cy="2.40741" r="2.40741" fill="#EEEEEE"/>
<circle cx="2.40741" cy="18.6574" r="2.40741" fill="#EEEEEE"/>
<circle cx="2.40741" cy="34.9074" r="2.40741" fill="#EEEEEE"/>
<circle cx="2.40741" cy="51.1574" r="2.40741" fill="#EEEEEE"/>
<circle cx="2.40741" cy="67.4074" r="2.40741" fill="#EEEEEE"/>
<circle cx="2.40741" cy="83.6574" r="2.40741" fill="#EEEEEE"/>
<circle cx="2.40741" cy="99.9074" r="2.40741" fill="#EEEEEE"/>
<circle cx="2.40741" cy="116.157" r="2.40741" fill="#EEEEEE"/>
<circle cx="2.40741" cy="132.407" r="2.40741" fill="#EEEEEE"/>
<circle cx="2.40741" cy="148.657" r="2.40741" fill="#EEEEEE"/>
<circle cx="2.40741" cy="164.907" r="2.40741" fill="#EEEEEE"/>
<circle cx="2.40741" cy="181.157" r="2.40741" fill="#EEEEEE"/>
<circle cx="18.6574" cy="2.40741" r="2.40741" fill="#EEEEEE"/>
<circle cx="18.6574" cy="18.6574" r="2.40741" fill="#EEEEEE"/>
<circle cx="18.6574" cy="34.9074" r="2.40741" fill="#EEEEEE"/>
<circle cx="18.6574" cy="51.1574" r="2.40741" fill="#EEEEEE"/>
<circle cx="18.6574" cy="67.4074" r="2.40741" fill="#EEEEEE"/>
<circle cx="18.6574" cy="83.6574" r="2.40741" fill="#EEEEEE"/>
<circle cx="18.6574" cy="99.9074" r="2.40741" fill="#EEEEEE"/>
<circle cx="18.6574" cy="116.157" r="2.40741" fill="#EEEEEE"/>
<circle cx="18.6574" cy="132.407" r="2.40741" fill="#EEEEEE"/>
<circle cx="18.6574" cy="148.657" r="2.40741" fill="#EEEEEE"/>
<circle cx="18.6574" cy="164.907" r="2.40741" fill="#EEEEEE"/>
<circle cx="18.6574" cy="181.157" r="2.40741" fill="#EEEEEE"/>
<circle cx="34.9074" cy="2.40741" r="2.40741" fill="#EEEEEE"/>
<circle cx="34.9074" cy="18.6574" r="2.40741" fill="#EEEEEE"/>
<circle cx="34.9074" cy="34.9074" r="2.40741" fill="#EEEEEE"/>
<circle cx="34.9074" cy="51.1574" r="2.40741" fill="#EEEEEE"/>
<circle cx="34.9074" cy="67.4074" r="2.40741" fill="#EEEEEE"/>
<circle cx="34.9074" cy="83.6574" r="2.40741" fill="#EEEEEE"/>
<circle cx="34.9074" cy="99.9074" r="2.40741" fill="#EEEEEE"/>
<circle cx="34.9074" cy="116.157" r="2.40741" fill="#EEEEEE"/>
<circle cx="34.9074" cy="132.407" r="2.40741" fill="#EEEEEE"/>
<circle cx="34.9074" cy="148.657" r="2.40741" fill="#EEEEEE"/>
<circle cx="34.9074" cy="164.907" r="2.40741" fill="#EEEEEE"/>
<circle cx="34.9074" cy="181.157" r="2.40741" fill="#EEEEEE"/>
<circle cx="51.1574" cy="2.40741" r="2.40741" fill="#EEEEEE"/>
<circle cx="51.1574" cy="18.6574" r="2.40741" fill="#EEEEEE"/>
<circle cx="51.1574" cy="34.9074" r="2.40741" fill="#EEEEEE"/>
<circle cx="51.1574" cy="51.1574" r="2.40741" fill="#EEEEEE"/>
<circle cx="51.1574" cy="67.4074" r="2.40741" fill="#EEEEEE"/>
<circle cx="51.1574" cy="83.6574" r="2.40741" fill="#EEEEEE"/>
<circle cx="51.1574" cy="99.9074" r="2.40741" fill="#EEEEEE"/>
<circle cx="51.1574" cy="116.157" r="2.40741" fill="#EEEEEE"/>
<circle cx="51.1574" cy="132.407" r="2.40741" fill="#EEEEEE"/>
<circle cx="51.1574" cy="148.657" r="2.40741" fill="#EEEEEE"/>
<circle cx="51.1574" cy="164.907" r="2.40741" fill="#EEEEEE"/>
<circle cx="51.1574" cy="181.157" r="2.40741" fill="#EEEEEE"/>
<circle cx="67.4074" cy="2.40741" r="2.40741" fill="#EEEEEE"/>
<circle cx="67.4074" cy="18.6574" r="2.40741" fill="#EEEEEE"/>
<circle cx="67.4074" cy="34.9074" r="2.40741" fill="#EEEEEE"/>
<circle cx="67.4074" cy="51.1574" r="2.40741" fill="#EEEEEE"/>
<circle cx="67.4074" cy="67.4074" r="2.40741" fill="#EEEEEE"/>
<circle cx="67.4074" cy="83.6574" r="2.40741" fill="#EEEEEE"/>
<circle cx="67.4074" cy="99.9074" r="2.40741" fill="#EEEEEE"/>
<circle cx="67.4074" cy="116.157" r="2.40741" fill="#EEEEEE"/>
<circle cx="67.4074" cy="132.407" r="2.40741" fill="#EEEEEE"/>
<circle cx="67.4074" cy="148.657" r="2.40741" fill="#EEEEEE"/>
<circle cx="67.4074" cy="164.907" r="2.40741" fill="#EEEEEE"/>
<circle cx="67.4074" cy="181.157" r="2.40741" fill="#EEEEEE"/>
<circle cx="83.6574" cy="2.40741" r="2.40741" fill="#EEEEEE"/>
<circle cx="83.6574" cy="18.6574" r="2.40741" fill="#EEEEEE"/>
<circle cx="83.6574" cy="34.9074" r="2.40741" fill="#EEEEEE"/>
<circle cx="83.6574" cy="51.1574" r="2.40741" fill="#EEEEEE"/>
<circle cx="83.6574" cy="67.4074" r="2.40741" fill="#EEEEEE"/>
<circle cx="83.6574" cy="83.6574" r="2.40741" fill="#EEEEEE"/>
<circle cx="83.6574" cy="99.9074" r="2.40741" fill="#EEEEEE"/>
<circle cx="83.6574" cy="116.157" r="2.40741" fill="#EEEEEE"/>
<circle cx="83.6574" cy="132.407" r="2.40741" fill="#EEEEEE"/>
<circle cx="83.6574" cy="148.657" r="2.40741" fill="#EEEEEE"/>
<circle cx="83.6574" cy="164.907" r="2.40741" fill="#EEEEEE"/>
<circle cx="83.6574" cy="181.157" r="2.40741" fill="#EEEEEE"/>
<circle cx="99.9074" cy="2.40741" r="2.40741" fill="#EEEEEE"/>
<circle cx="99.9074" cy="18.6574" r="2.40741" fill="#EEEEEE"/>
<circle cx="99.9074" cy="34.9074" r="2.40741" fill="#EEEEEE"/>
<circle cx="99.9074" cy="51.1574" r="2.40741" fill="#EEEEEE"/>
<circle cx="99.9074" cy="67.4074" r="2.40741" fill="#EEEEEE"/>
<circle cx="99.9074" cy="83.6574" r="2.40741" fill="#EEEEEE"/>
<circle cx="99.9074" cy="99.9074" r="2.40741" fill="#EEEEEE"/>
<circle cx="99.9074" cy="116.157" r="2.40741" fill="#EEEEEE"/>
<circle cx="99.9074" cy="132.407" r="2.40741" fill="#EEEEEE"/>
<circle cx="99.9074" cy="148.657" r="2.40741" fill="#EEEEEE"/>
<circle cx="99.9074" cy="164.907" r="2.40741" fill="#EEEEEE"/>
<circle cx="99.9074" cy="181.157" r="2.40741" fill="#EEEEEE"/>
<circle cx="116.157" cy="2.40741" r="2.40741" fill="#EEEEEE"/>
<circle cx="116.157" cy="18.6574" r="2.40741" fill="#EEEEEE"/>
<circle cx="116.157" cy="34.9074" r="2.40741" fill="#EEEEEE"/>
<circle cx="116.157" cy="51.1574" r="2.40741" fill="#EEEEEE"/>
<circle cx="116.157" cy="67.4074" r="2.40741" fill="#EEEEEE"/>
<circle cx="116.157" cy="83.6574" r="2.40741" fill="#EEEEEE"/>
<circle cx="116.157" cy="99.9074" r="2.40741" fill="#EEEEEE"/>
<circle cx="116.157" cy="116.157" r="2.40741" fill="#EEEEEE"/>
<circle cx="116.157" cy="132.407" r="2.40741" fill="#EEEEEE"/>
<circle cx="116.157" cy="148.657" r="2.40741" fill="#EEEEEE"/>
<circle cx="116.157" cy="164.907" r="2.40741" fill="#EEEEEE"/>
<circle cx="116.157" cy="181.157" r="2.40741" fill="#EEEEEE"/>
<circle cx="132.407" cy="2.40741" r="2.40741" fill="#EEEEEE"/>
<circle cx="132.407" cy="18.6574" r="2.40741" fill="#EEEEEE"/>
<circle cx="132.407" cy="34.9074" r="2.40741" fill="#EEEEEE"/>
<circle cx="132.407" cy="51.1574" r="2.40741" fill="#EEEEEE"/>
<circle cx="132.407" cy="67.4074" r="2.40741" fill="#EEEEEE"/>
<circle cx="132.407" cy="83.6574" r="2.40741" fill="#EEEEEE"/>
<circle cx="132.407" cy="99.9074" r="2.40741" fill="#EEEEEE"/>
<circle cx="132.407" cy="116.157" r="2.40741" fill="#EEEEEE"/>
<circle cx="132.407" cy="132.407" r="2.40741" fill="#EEEEEE"/>
<circle cx="132.407" cy="148.657" r="2.40741" fill="#EEEEEE"/>
<circle cx="132.407" cy="164.907" r="2.40741" fill="#EEEEEE"/>
<circle cx="132.407" cy="181.157" r="2.40741" fill="#EEEEEE"/>
<circle cx="148.657" cy="2.40741" r="2.40741" fill="#EEEEEE"/>
<circle cx="148.657" cy="18.6574" r="2.40741" fill="#EEEEEE"/>
<circle cx="148.657" cy="34.9074" r="2.40741" fill="#EEEEEE"/>
<circle cx="148.657" cy="51.1574" r="2.40741" fill="#EEEEEE"/>
<circle cx="148.657" cy="67.4074" r="2.40741" fill="#EEEEEE"/>
<circle cx="148.657" cy="83.6574" r="2.40741" fill="#EEEEEE"/>
<circle cx="148.657" cy="99.9074" r="2.40741" fill="#EEEEEE"/>
<circle cx="148.657" cy="116.157" r="2.40741" fill="#EEEEEE"/>
<circle cx="148.657" cy="132.407" r="2.40741" fill="#EEEEEE"/>
<circle cx="148.657" cy="148.657" r="2.40741" fill="#EEEEEE"/>
<circle cx="148.657" cy="164.907" r="2.40741" fill="#EEEEEE"/>
<circle cx="148.657" cy="181.157" r="2.40741" fill="#EEEEEE"/>
<circle cx="164.907" cy="2.40741" r="2.40741" fill="#EEEEEE"/>
<circle cx="164.907" cy="18.6574" r="2.40741" fill="#EEEEEE"/>
<circle cx="164.907" cy="34.9074" r="2.40741" fill="#EEEEEE"/>
<circle cx="164.907" cy="51.1574" r="2.40741" fill="#EEEEEE"/>
<circle cx="164.907" cy="67.4074" r="2.40741" fill="#EEEEEE"/>
<circle cx="164.907" cy="83.6574" r="2.40741" fill="#EEEEEE"/>
<circle cx="164.907" cy="99.9074" r="2.40741" fill="#EEEEEE"/>
<circle cx="164.907" cy="116.157" r="2.40741" fill="#EEEEEE"/>
<circle cx="164.907" cy="132.407" r="2.40741" fill="#EEEEEE"/>
<circle cx="164.907" cy="148.657" r="2.40741" fill="#EEEEEE"/>
<circle cx="164.907" cy="164.907" r="2.40741" fill="#EEEEEE"/>
<circle cx="164.907" cy="181.157" r="2.40741" fill="#EEEEEE"/>
<circle cx="181.157" cy="2.40741" r="2.40741" fill="#EEEEEE"/>
<circle cx="181.157" cy="18.6574" r="2.40741" fill="#EEEEEE"/>
<circle cx="181.157" cy="34.9074" r="2.40741" fill="#EEEEEE"/>
<circle cx="181.157" cy="51.1574" r="2.40741" fill="#EEEEEE"/>
<circle cx="181.157" cy="67.4074" r="2.40741" fill="#EEEEEE"/>
<circle cx="181.157" cy="83.6574" r="2.40741" fill="#EEEEEE"/>
<circle cx="181.157" cy="99.9074" r="2.40741" fill="#EEEEEE"/>
<circle cx="181.157" cy="116.157" r="2.40741" fill="#EEEEEE"/>
<circle cx="181.157" cy="132.407" r="2.40741" fill="#EEEEEE"/>
<circle cx="181.157" cy="148.657" r="2.40741" fill="#EEEEEE"/>
<circle cx="181.157" cy="164.907" r="2.40741" fill="#EEEEEE"/>
<circle cx="181.157" cy="181.157" r="2.40741" fill="#EEEEEE"/>
<circle cx="2.40741" cy="197.407" r="2.40741" fill="#EEEEEE"/>
<circle cx="2.40741" cy="213.657" r="2.40741" fill="#EEEEEE"/>
<circle cx="2.40741" cy="229.907" r="2.40741" fill="#EEEEEE"/>
<circle cx="2.40741" cy="246.157" r="2.40741" fill="#EEEEEE"/>
<circle cx="2.40741" cy="262.407" r="2.40741" fill="#EEEEEE"/>
<circle cx="2.40741" cy="278.657" r="2.40741" fill="#EEEEEE"/>
<circle cx="2.40741" cy="294.907" r="2.40741" fill="#EEEEEE"/>
<circle cx="2.40741" cy="311.157" r="2.40741" fill="#EEEEEE"/>
<circle cx="2.40741" cy="327.407" r="2.40741" fill="#EEEEEE"/>
<circle cx="2.40741" cy="343.657" r="2.40741" fill="#EEEEEE"/>
<circle cx="2.40741" cy="359.907" r="2.40741" fill="#EEEEEE"/>
<circle cx="2.40741" cy="376.157" r="2.40741" fill="#EEEEEE"/>
<circle cx="18.6574" cy="197.407" r="2.40741" fill="#EEEEEE"/>
<circle cx="18.6574" cy="213.657" r="2.40741" fill="#EEEEEE"/>
<circle cx="18.6574" cy="229.907" r="2.40741" fill="#EEEEEE"/>
<circle cx="18.6574" cy="246.157" r="2.40741" fill="#EEEEEE"/>
<circle cx="18.6574" cy="262.407" r="2.40741" fill="#EEEEEE"/>
<circle cx="18.6574" cy="278.657" r="2.40741" fill="#EEEEEE"/>
<circle cx="18.6574" cy="294.907" r="2.40741" fill="#EEEEEE"/>
<circle cx="18.6574" cy="311.157" r="2.40741" fill="#EEEEEE"/>
<circle cx="18.6574" cy="327.407" r="2.40741" fill="#EEEEEE"/>
<circle cx="18.6574" cy="343.657" r="2.40741" fill="#EEEEEE"/>
<circle cx="18.6574" cy="359.907" r="2.40741" fill="#EEEEEE"/>
<circle cx="18.6574" cy="376.157" r="2.40741" fill="#EEEEEE"/>
<circle cx="34.9074" cy="197.407" r="2.40741" fill="#EEEEEE"/>
<circle cx="34.9074" cy="213.657" r="2.40741" fill="#EEEEEE"/>
<circle cx="34.9074" cy="229.907" r="2.40741" fill="#EEEEEE"/>
<circle cx="34.9074" cy="246.157" r="2.40741" fill="#EEEEEE"/>
<circle cx="34.9074" cy="262.407" r="2.40741" fill="#EEEEEE"/>
<circle cx="34.9074" cy="278.657" r="2.40741" fill="#EEEEEE"/>
<circle cx="34.9074" cy="294.907" r="2.40741" fill="#EEEEEE"/>
<circle cx="34.9074" cy="311.157" r="2.40741" fill="#EEEEEE"/>
<circle cx="34.9074" cy="327.407" r="2.40741" fill="#EEEEEE"/>
<circle cx="34.9074" cy="343.657" r="2.40741" fill="#EEEEEE"/>
<circle cx="34.9074" cy="359.907" r="2.40741" fill="#EEEEEE"/>
<circle cx="34.9074" cy="376.157" r="2.40741" fill="#EEEEEE"/>
<circle cx="51.1574" cy="197.407" r="2.40741" fill="#EEEEEE"/>
<circle cx="51.1574" cy="213.657" r="2.40741" fill="#EEEEEE"/>
<circle cx="51.1574" cy="229.907" r="2.40741" fill="#EEEEEE"/>
<circle cx="51.1574" cy="246.157" r="2.40741" fill="#EEEEEE"/>
<circle cx="51.1574" cy="262.407" r="2.40741" fill="#EEEEEE"/>
<circle cx="51.1574" cy="278.657" r="2.40741" fill="#EEEEEE"/>
<circle cx="51.1574" cy="294.907" r="2.40741" fill="#EEEEEE"/>
<circle cx="51.1574" cy="311.157" r="2.40741" fill="#EEEEEE"/>
<circle cx="51.1574" cy="327.407" r="2.40741" fill="#EEEEEE"/>
<circle cx="51.1574" cy="343.657" r="2.40741" fill="#EEEEEE"/>
<circle cx="51.1574" cy="359.907" r="2.40741" fill="#EEEEEE"/>
<circle cx="51.1574" cy="376.157" r="2.40741" fill="#EEEEEE"/>
<circle cx="67.4074" cy="197.407" r="2.40741" fill="#EEEEEE"/>
<circle cx="67.4074" cy="213.657" r="2.40741" fill="#EEEEEE"/>
<circle cx="67.4074" cy="229.907" r="2.40741" fill="#EEEEEE"/>
<circle cx="67.4074" cy="246.157" r="2.40741" fill="#EEEEEE"/>
<circle cx="67.4074" cy="262.407" r="2.40741" fill="#EEEEEE"/>
<circle cx="67.4074" cy="278.657" r="2.40741" fill="#EEEEEE"/>
<circle cx="67.4074" cy="294.907" r="2.40741" fill="#EEEEEE"/>
<circle cx="67.4074" cy="311.157" r="2.40741" fill="#EEEEEE"/>
<circle cx="67.4074" cy="327.407" r="2.40741" fill="#EEEEEE"/>
<circle cx="67.4074" cy="343.657" r="2.40741" fill="#EEEEEE"/>
<circle cx="67.4074" cy="359.907" r="2.40741" fill="#EEEEEE"/>
<circle cx="67.4074" cy="376.157" r="2.40741" fill="#EEEEEE"/>
<circle cx="83.6574" cy="197.407" r="2.40741" fill="#EEEEEE"/>
<circle cx="83.6574" cy="213.657" r="2.40741" fill="#EEEEEE"/>
<circle cx="83.6574" cy="229.907" r="2.40741" fill="#EEEEEE"/>
<circle cx="83.6574" cy="246.157" r="2.40741" fill="#EEEEEE"/>
<circle cx="83.6574" cy="262.407" r="2.40741" fill="#EEEEEE"/>
<circle cx="83.6574" cy="278.657" r="2.40741" fill="#EEEEEE"/>
<circle cx="83.6574" cy="294.907" r="2.40741" fill="#EEEEEE"/>
<circle cx="83.6574" cy="311.157" r="2.40741" fill="#EEEEEE"/>
<circle cx="83.6574" cy="327.407" r="2.40741" fill="#EEEEEE"/>
<circle cx="83.6574" cy="343.657" r="2.40741" fill="#EEEEEE"/>
<circle cx="83.6574" cy="359.907" r="2.40741" fill="#EEEEEE"/>
<circle cx="83.6574" cy="376.157" r="2.40741" fill="#EEEEEE"/>
<circle cx="99.9074" cy="197.407" r="2.40741" fill="#EEEEEE"/>
<circle cx="99.9074" cy="213.657" r="2.40741" fill="#EEEEEE"/>
<circle cx="99.9074" cy="229.907" r="2.40741" fill="#EEEEEE"/>
<circle cx="99.9074" cy="246.157" r="2.40741" fill="#EEEEEE"/>
<circle cx="99.9074" cy="262.407" r="2.40741" fill="#EEEEEE"/>
<circle cx="99.9074" cy="278.657" r="2.40741" fill="#EEEEEE"/>
<circle cx="99.9074" cy="294.907" r="2.40741" fill="#EEEEEE"/>
<circle cx="99.9074" cy="311.157" r="2.40741" fill="#EEEEEE"/>
<circle cx="99.9074" cy="327.407" r="2.40741" fill="#EEEEEE"/>
<circle cx="99.9074" cy="343.657" r="2.40741" fill="#EEEEEE"/>
<circle cx="99.9074" cy="359.907" r="2.40741" fill="#EEEEEE"/>
<circle cx="99.9074" cy="376.157" r="2.40741" fill="#EEEEEE"/>
<circle cx="116.157" cy="197.407" r="2.40741" fill="#EEEEEE"/>
<circle cx="116.157" cy="213.657" r="2.40741" fill="#EEEEEE"/>
<circle cx="116.157" cy="229.907" r="2.40741" fill="#EEEEEE"/>
<circle cx="116.157" cy="246.157" r="2.40741" fill="#EEEEEE"/>
<circle cx="116.157" cy="262.407" r="2.40741" fill="#EEEEEE"/>
<circle cx="116.157" cy="278.657" r="2.40741" fill="#EEEEEE"/>
<circle cx="116.157" cy="294.907" r="2.40741" fill="#EEEEEE"/>
<circle cx="116.157" cy="311.157" r="2.40741" fill="#EEEEEE"/>
<circle cx="116.157" cy="327.407" r="2.40741" fill="#EEEEEE"/>
<circle cx="116.157" cy="343.657" r="2.40741" fill="#EEEEEE"/>
<circle cx="116.157" cy="359.907" r="2.40741" fill="#EEEEEE"/>
<circle cx="116.157" cy="376.157" r="2.40741" fill="#EEEEEE"/>
<circle cx="132.407" cy="197.407" r="2.40741" fill="#EEEEEE"/>
<circle cx="132.407" cy="213.657" r="2.40741" fill="#EEEEEE"/>
<circle cx="132.407" cy="229.907" r="2.40741" fill="#EEEEEE"/>
<circle cx="132.407" cy="246.157" r="2.40741" fill="#EEEEEE"/>
<circle cx="132.407" cy="262.407" r="2.40741" fill="#EEEEEE"/>
<circle cx="132.407" cy="278.657" r="2.40741" fill="#EEEEEE"/>
<circle cx="132.407" cy="294.907" r="2.40741" fill="#EEEEEE"/>
<circle cx="132.407" cy="311.157" r="2.40741" fill="#EEEEEE"/>
<circle cx="132.407" cy="327.407" r="2.40741" fill="#EEEEEE"/>
<circle cx="132.407" cy="343.657" r="2.40741" fill="#EEEEEE"/>
<circle cx="132.407" cy="359.907" r="2.40741" fill="#EEEEEE"/>
<circle cx="132.407" cy="376.157" r="2.40741" fill="#EEEEEE"/>
<circle cx="148.657" cy="197.407" r="2.40741" fill="#EEEEEE"/>
<circle cx="148.657" cy="213.657" r="2.40741" fill="#EEEEEE"/>
<circle cx="148.657" cy="229.907" r="2.40741" fill="#EEEEEE"/>
<circle cx="148.657" cy="246.157" r="2.40741" fill="#EEEEEE"/>
<circle cx="148.657" cy="262.407" r="2.40741" fill="#EEEEEE"/>
<circle cx="148.657" cy="278.657" r="2.40741" fill="#EEEEEE"/>
<circle cx="148.657" cy="294.907" r="2.40741" fill="#EEEEEE"/>
<circle cx="148.657" cy="311.157" r="2.40741" fill="#EEEEEE"/>
<circle cx="148.657" cy="327.407" r="2.40741" fill="#EEEEEE"/>
<circle cx="148.657" cy="343.657" r="2.40741" fill="#EEEEEE"/>
<circle cx="148.657" cy="359.907" r="2.40741" fill="#EEEEEE"/>
<circle cx="148.657" cy="376.157" r="2.40741" fill="#EEEEEE"/>
<circle cx="164.907" cy="197.407" r="2.40741" fill="#EEEEEE"/>
<circle cx="164.907" cy="213.657" r="2.40741" fill="#EEEEEE"/>
<circle cx="164.907" cy="229.907" r="2.40741" fill="#EEEEEE"/>
<circle cx="164.907" cy="246.157" r="2.40741" fill="#EEEEEE"/>
<circle cx="164.907" cy="262.407" r="2.40741" fill="#EEEEEE"/>
<circle cx="164.907" cy="278.657" r="2.40741" fill="#EEEEEE"/>
<circle cx="164.907" cy="294.907" r="2.40741" fill="#EEEEEE"/>
<circle cx="164.907" cy="311.157" r="2.40741" fill="#EEEEEE"/>
<circle cx="164.907" cy="327.407" r="2.40741" fill="#EEEEEE"/>
<circle cx="164.907" cy="343.657" r="2.40741" fill="#EEEEEE"/>
<circle cx="164.907" cy="359.907" r="2.40741" fill="#EEEEEE"/>
<circle cx="164.907" cy="376.157" r="2.40741" fill="#EEEEEE"/>
<circle cx="181.157" cy="197.407" r="2.40741" fill="#EEEEEE"/>
<circle cx="181.157" cy="213.657" r="2.40741" fill="#EEEEEE"/>
<circle cx="181.157" cy="229.907" r="2.40741" fill="#EEEEEE"/>
<circle cx="181.157" cy="246.157" r="2.40741" fill="#EEEEEE"/>
<circle cx="181.157" cy="262.407" r="2.40741" fill="#EEEEEE"/>
<circle cx="181.157" cy="278.657" r="2.40741" fill="#EEEEEE"/>
<circle cx="181.157" cy="294.907" r="2.40741" fill="#EEEEEE"/>
<circle cx="181.157" cy="311.157" r="2.40741" fill="#EEEEEE"/>
<circle cx="181.157" cy="327.407" r="2.40741" fill="#EEEEEE"/>
<circle cx="181.157" cy="343.657" r="2.40741" fill="#EEEEEE"/>
<circle cx="181.157" cy="359.907" r="2.40741" fill="#EEEEEE"/>
<circle cx="181.157" cy="376.157" r="2.40741" fill="#EEEEEE"/>
<circle cx="197.407" cy="2.40741" r="2.40741" fill="#EEEEEE"/>
<circle cx="197.407" cy="18.6574" r="2.40741" fill="#EEEEEE"/>
<circle cx="197.407" cy="34.9074" r="2.40741" fill="#EEEEEE"/>
<circle cx="197.407" cy="51.1574" r="2.40741" fill="#EEEEEE"/>
<circle cx="197.407" cy="67.4074" r="2.40741" fill="#EEEEEE"/>
<circle cx="197.407" cy="83.6574" r="2.40741" fill="#EEEEEE"/>
<circle cx="197.407" cy="99.9074" r="2.40741" fill="#EEEEEE"/>
<circle cx="197.407" cy="116.157" r="2.40741" fill="#EEEEEE"/>
<circle cx="197.407" cy="132.407" r="2.40741" fill="#EEEEEE"/>
<circle cx="197.407" cy="148.657" r="2.40741" fill="#EEEEEE"/>
<circle cx="197.407" cy="164.907" r="2.40741" fill="#EEEEEE"/>
<circle cx="197.407" cy="181.157" r="2.40741" fill="#EEEEEE"/>
<circle cx="213.657" cy="2.40741" r="2.40741" fill="#EEEEEE"/>
<circle cx="213.657" cy="18.6574" r="2.40741" fill="#EEEEEE"/>
<circle cx="213.657" cy="34.9074" r="2.40741" fill="#EEEEEE"/>
<circle cx="213.657" cy="51.1574" r="2.40741" fill="#EEEEEE"/>
<circle cx="213.657" cy="67.4074" r="2.40741" fill="#EEEEEE"/>
<circle cx="213.657" cy="83.6574" r="2.40741" fill="#EEEEEE"/>
<circle cx="213.657" cy="99.9074" r="2.40741" fill="#EEEEEE"/>
<circle cx="213.657" cy="116.157" r="2.40741" fill="#EEEEEE"/>
<circle cx="213.657" cy="132.407" r="2.40741" fill="#EEEEEE"/>
<circle cx="213.657" cy="148.657" r="2.40741" fill="#EEEEEE"/>
<circle cx="213.657" cy="164.907" r="2.40741" fill="#EEEEEE"/>
<circle cx="213.657" cy="181.157" r="2.40741" fill="#EEEEEE"/>
<circle cx="229.907" cy="2.40741" r="2.40741" fill="#EEEEEE"/>
<circle cx="229.907" cy="18.6574" r="2.40741" fill="#EEEEEE"/>
<circle cx="229.907" cy="34.9074" r="2.40741" fill="#EEEEEE"/>
<circle cx="229.907" cy="51.1574" r="2.40741" fill="#EEEEEE"/>
<circle cx="229.907" cy="67.4074" r="2.40741" fill="#EEEEEE"/>
<circle cx="229.907" cy="83.6574" r="2.40741" fill="#EEEEEE"/>
<circle cx="229.907" cy="99.9074" r="2.40741" fill="#EEEEEE"/>
<circle cx="229.907" cy="116.157" r="2.40741" fill="#EEEEEE"/>
<circle cx="229.907" cy="132.407" r="2.40741" fill="#EEEEEE"/>
<circle cx="229.907" cy="148.657" r="2.40741" fill="#EEEEEE"/>
<circle cx="229.907" cy="164.907" r="2.40741" fill="#EEEEEE"/>
<circle cx="229.907" cy="181.157" r="2.40741" fill="#EEEEEE"/>
<circle cx="246.157" cy="2.40741" r="2.40741" fill="#EEEEEE"/>
<circle cx="246.157" cy="18.6574" r="2.40741" fill="#EEEEEE"/>
<circle cx="246.157" cy="34.9074" r="2.40741" fill="#EEEEEE"/>
<circle cx="246.157" cy="51.1574" r="2.40741" fill="#EEEEEE"/>
<circle cx="246.157" cy="67.4074" r="2.40741" fill="#EEEEEE"/>
<circle cx="246.157" cy="83.6574" r="2.40741" fill="#EEEEEE"/>
<circle cx="246.157" cy="99.9074" r="2.40741" fill="#EEEEEE"/>
<circle cx="246.157" cy="116.157" r="2.40741" fill="#EEEEEE"/>
<circle cx="246.157" cy="132.407" r="2.40741" fill="#EEEEEE"/>
<circle cx="246.157" cy="148.657" r="2.40741" fill="#EEEEEE"/>
<circle cx="246.157" cy="164.907" r="2.40741" fill="#EEEEEE"/>
<circle cx="246.157" cy="181.157" r="2.40741" fill="#EEEEEE"/>
<circle cx="262.407" cy="2.40741" r="2.40741" fill="#EEEEEE"/>
<circle cx="262.407" cy="18.6574" r="2.40741" fill="#EEEEEE"/>
<circle cx="262.407" cy="34.9074" r="2.40741" fill="#EEEEEE"/>
<circle cx="262.407" cy="51.1574" r="2.40741" fill="#EEEEEE"/>
<circle cx="262.407" cy="67.4074" r="2.40741" fill="#EEEEEE"/>
<circle cx="262.407" cy="83.6574" r="2.40741" fill="#EEEEEE"/>
<circle cx="262.407" cy="99.9074" r="2.40741" fill="#EEEEEE"/>
<circle cx="262.407" cy="116.157" r="2.40741" fill="#EEEEEE"/>
<circle cx="262.407" cy="132.407" r="2.40741" fill="#EEEEEE"/>
<circle cx="262.407" cy="148.657" r="2.40741" fill="#EEEEEE"/>
<circle cx="262.407" cy="164.907" r="2.40741" fill="#EEEEEE"/>
<circle cx="262.407" cy="181.157" r="2.40741" fill="#EEEEEE"/>
<circle cx="278.657" cy="2.40741" r="2.40741" fill="#EEEEEE"/>
<circle cx="278.657" cy="18.6574" r="2.40741" fill="#EEEEEE"/>
<circle cx="278.657" cy="34.9074" r="2.40741" fill="#EEEEEE"/>
<circle cx="278.657" cy="51.1574" r="2.40741" fill="#EEEEEE"/>
<circle cx="278.657" cy="67.4074" r="2.40741" fill="#EEEEEE"/>
<circle cx="278.657" cy="83.6574" r="2.40741" fill="#EEEEEE"/>
<circle cx="278.657" cy="99.9074" r="2.40741" fill="#EEEEEE"/>
<circle cx="278.657" cy="116.157" r="2.40741" fill="#EEEEEE"/>
<circle cx="278.657" cy="132.407" r="2.40741" fill="#EEEEEE"/>
<circle cx="278.657" cy="148.657" r="2.40741" fill="#EEEEEE"/>
<circle cx="278.657" cy="164.907" r="2.40741" fill="#EEEEEE"/>
<circle cx="278.657" cy="181.157" r="2.40741" fill="#EEEEEE"/>
<circle cx="294.907" cy="2.40741" r="2.40741" fill="#EEEEEE"/>
<circle cx="294.907" cy="18.6574" r="2.40741" fill="#EEEEEE"/>
<circle cx="294.907" cy="34.9074" r="2.40741" fill="#EEEEEE"/>
<circle cx="294.907" cy="51.1574" r="2.40741" fill="#EEEEEE"/>
<circle cx="294.907" cy="67.4074" r="2.40741" fill="#EEEEEE"/>
<circle cx="294.907" cy="83.6574" r="2.40741" fill="#EEEEEE"/>
<circle cx="294.907" cy="99.9074" r="2.40741" fill="#EEEEEE"/>
<circle cx="294.907" cy="116.157" r="2.40741" fill="#EEEEEE"/>
<circle cx="294.907" cy="132.407" r="2.40741" fill="#EEEEEE"/>
<circle cx="294.907" cy="148.657" r="2.40741" fill="#EEEEEE"/>
<circle cx="294.907" cy="164.907" r="2.40741" fill="#EEEEEE"/>
<circle cx="294.907" cy="181.157" r="2.40741" fill="#EEEEEE"/>
<circle cx="311.157" cy="2.40741" r="2.40741" fill="#EEEEEE"/>
<circle cx="311.157" cy="18.6574" r="2.40741" fill="#EEEEEE"/>
<circle cx="311.157" cy="34.9074" r="2.40741" fill="#EEEEEE"/>
<circle cx="311.157" cy="51.1574" r="2.40741" fill="#EEEEEE"/>
<circle cx="311.157" cy="67.4074" r="2.40741" fill="#EEEEEE"/>
<circle cx="311.157" cy="83.6574" r="2.40741" fill="#EEEEEE"/>
<circle cx="311.157" cy="99.9074" r="2.40741" fill="#EEEEEE"/>
<circle cx="311.157" cy="116.157" r="2.40741" fill="#EEEEEE"/>
<circle cx="311.157" cy="132.407" r="2.40741" fill="#EEEEEE"/>
<circle cx="311.157" cy="148.657" r="2.40741" fill="#EEEEEE"/>
<circle cx="311.157" cy="164.907" r="2.40741" fill="#EEEEEE"/>
<circle cx="311.157" cy="181.157" r="2.40741" fill="#EEEEEE"/>
<circle cx="327.407" cy="2.40741" r="2.40741" fill="#EEEEEE"/>
<circle cx="327.407" cy="18.6574" r="2.40741" fill="#EEEEEE"/>
<circle cx="327.407" cy="34.9074" r="2.40741" fill="#EEEEEE"/>
<circle cx="327.407" cy="51.1574" r="2.40741" fill="#EEEEEE"/>
<circle cx="327.407" cy="67.4074" r="2.40741" fill="#EEEEEE"/>
<circle cx="327.407" cy="83.6574" r="2.40741" fill="#EEEEEE"/>
<circle cx="327.407" cy="99.9074" r="2.40741" fill="#EEEEEE"/>
<circle cx="327.407" cy="116.157" r="2.40741" fill="#EEEEEE"/>
<circle cx="327.407" cy="132.407" r="2.40741" fill="#EEEEEE"/>
<circle cx="327.407" cy="148.657" r="2.40741" fill="#EEEEEE"/>
<circle cx="327.407" cy="164.907" r="2.40741" fill="#EEEEEE"/>
<circle cx="327.407" cy="181.157" r="2.40741" fill="#EEEEEE"/>
<circle cx="343.657" cy="2.40741" r="2.40741" fill="#EEEEEE"/>
<circle cx="343.657" cy="18.6574" r="2.40741" fill="#EEEEEE"/>
<circle cx="343.657" cy="34.9074" r="2.40741" fill="#EEEEEE"/>
<circle cx="343.657" cy="51.1574" r="2.40741" fill="#EEEEEE"/>
<circle cx="343.657" cy="67.4074" r="2.40741" fill="#EEEEEE"/>
<circle cx="343.657" cy="83.6574" r="2.40741" fill="#EEEEEE"/>
<circle cx="343.657" cy="99.9074" r="2.40741" fill="#EEEEEE"/>
<circle cx="343.657" cy="116.157" r="2.40741" fill="#EEEEEE"/>
<circle cx="343.657" cy="132.407" r="2.40741" fill="#EEEEEE"/>
<circle cx="343.657" cy="148.657" r="2.40741" fill="#EEEEEE"/>
<circle cx="343.657" cy="164.907" r="2.40741" fill="#EEEEEE"/>
<circle cx="343.657" cy="181.157" r="2.40741" fill="#EEEEEE"/>
<circle cx="359.907" cy="2.40741" r="2.40741" fill="#EEEEEE"/>
<circle cx="359.907" cy="18.6574" r="2.40741" fill="#EEEEEE"/>
<circle cx="359.907" cy="34.9074" r="2.40741" fill="#EEEEEE"/>
<circle cx="359.907" cy="51.1574" r="2.40741" fill="#EEEEEE"/>
<circle cx="359.907" cy="67.4074" r="2.40741" fill="#EEEEEE"/>
<circle cx="359.907" cy="83.6574" r="2.40741" fill="#EEEEEE"/>
<circle cx="359.907" cy="99.9074" r="2.40741" fill="#EEEEEE"/>
<circle cx="359.907" cy="116.157" r="2.40741" fill="#EEEEEE"/>
<circle cx="359.907" cy="132.407" r="2.40741" fill="#EEEEEE"/>
<circle cx="359.907" cy="148.657" r="2.40741" fill="#EEEEEE"/>
<circle cx="359.907" cy="164.907" r="2.40741" fill="#EEEEEE"/>
<circle cx="359.907" cy="181.157" r="2.40741" fill="#EEEEEE"/>
<circle cx="376.157" cy="2.40741" r="2.40741" fill="#EEEEEE"/>
<circle cx="376.157" cy="18.6574" r="2.40741" fill="#EEEEEE"/>
<circle cx="376.157" cy="34.9074" r="2.40741" fill="#EEEEEE"/>
<circle cx="376.157" cy="51.1574" r="2.40741" fill="#EEEEEE"/>
<circle cx="376.157" cy="67.4074" r="2.40741" fill="#EEEEEE"/>
<circle cx="376.157" cy="83.6574" r="2.40741" fill="#EEEEEE"/>
<circle cx="376.157" cy="99.9074" r="2.40741" fill="#EEEEEE"/>
<circle cx="376.157" cy="116.157" r="2.40741" fill="#EEEEEE"/>
<circle cx="376.157" cy="132.407" r="2.40741" fill="#EEEEEE"/>
<circle cx="376.157" cy="148.657" r="2.40741" fill="#EEEEEE"/>
<circle cx="376.157" cy="164.907" r="2.40741" fill="#EEEEEE"/>
<circle cx="376.157" cy="181.157" r="2.40741" fill="#EEEEEE"/>
<circle cx="197.407" cy="197.407" r="2.40741" fill="#EEEEEE"/>
<circle cx="197.407" cy="213.657" r="2.40741" fill="#EEEEEE"/>
<circle cx="197.407" cy="229.907" r="2.40741" fill="#EEEEEE"/>
<circle cx="197.407" cy="246.157" r="2.40741" fill="#EEEEEE"/>
<circle cx="197.407" cy="262.407" r="2.40741" fill="#EEEEEE"/>
<circle cx="197.407" cy="278.657" r="2.40741" fill="#EEEEEE"/>
<circle cx="197.407" cy="294.907" r="2.40741" fill="#EEEEEE"/>
<circle cx="197.407" cy="311.157" r="2.40741" fill="#EEEEEE"/>
<circle cx="197.407" cy="327.407" r="2.40741" fill="#EEEEEE"/>
<circle cx="197.407" cy="343.657" r="2.40741" fill="#EEEEEE"/>
<circle cx="197.407" cy="359.907" r="2.40741" fill="#EEEEEE"/>
<circle cx="197.407" cy="376.157" r="2.40741" fill="#EEEEEE"/>
<circle cx="213.657" cy="197.407" r="2.40741" fill="#EEEEEE"/>
<circle cx="213.657" cy="213.657" r="2.40741" fill="#EEEEEE"/>
<circle cx="213.657" cy="229.907" r="2.40741" fill="#EEEEEE"/>
<circle cx="213.657" cy="246.157" r="2.40741" fill="#EEEEEE"/>
<circle cx="213.657" cy="262.407" r="2.40741" fill="#EEEEEE"/>
<circle cx="213.657" cy="278.657" r="2.40741" fill="#EEEEEE"/>
<circle cx="213.657" cy="294.907" r="2.40741" fill="#EEEEEE"/>
<circle cx="213.657" cy="311.157" r="2.40741" fill="#EEEEEE"/>
<circle cx="213.657" cy="327.407" r="2.40741" fill="#EEEEEE"/>
<circle cx="213.657" cy="343.657" r="2.40741" fill="#EEEEEE"/>
<circle cx="213.657" cy="359.907" r="2.40741" fill="#EEEEEE"/>
<circle cx="213.657" cy="376.157" r="2.40741" fill="#EEEEEE"/>
<circle cx="229.907" cy="197.407" r="2.40741" fill="#EEEEEE"/>
<circle cx="229.907" cy="213.657" r="2.40741" fill="#EEEEEE"/>
<circle cx="229.907" cy="229.907" r="2.40741" fill="#EEEEEE"/>
<circle cx="229.907" cy="246.157" r="2.40741" fill="#EEEEEE"/>
<circle cx="229.907" cy="262.407" r="2.40741" fill="#EEEEEE"/>
<circle cx="229.907" cy="278.657" r="2.40741" fill="#EEEEEE"/>
<circle cx="229.907" cy="294.907" r="2.40741" fill="#EEEEEE"/>
<circle cx="229.907" cy="311.157" r="2.40741" fill="#EEEEEE"/>
<circle cx="229.907" cy="327.407" r="2.40741" fill="#EEEEEE"/>
<circle cx="229.907" cy="343.657" r="2.40741" fill="#EEEEEE"/>
<circle cx="229.907" cy="359.907" r="2.40741" fill="#EEEEEE"/>
<circle cx="229.907" cy="376.157" r="2.40741" fill="#EEEEEE"/>
<circle cx="246.157" cy="197.407" r="2.40741" fill="#EEEEEE"/>
<circle cx="246.157" cy="213.657" r="2.40741" fill="#EEEEEE"/>
<circle cx="246.157" cy="229.907" r="2.40741" fill="#EEEEEE"/>
<circle cx="246.157" cy="246.157" r="2.40741" fill="#EEEEEE"/>
<circle cx="246.157" cy="262.407" r="2.40741" fill="#EEEEEE"/>
<circle cx="246.157" cy="278.657" r="2.40741" fill="#EEEEEE"/>
<circle cx="246.157" cy="294.907" r="2.40741" fill="#EEEEEE"/>
<circle cx="246.157" cy="311.157" r="2.40741" fill="#EEEEEE"/>
<circle cx="246.157" cy="327.407" r="2.40741" fill="#EEEEEE"/>
<circle cx="246.157" cy="343.657" r="2.40741" fill="#EEEEEE"/>
<circle cx="246.157" cy="359.907" r="2.40741" fill="#EEEEEE"/>
<circle cx="246.157" cy="376.157" r="2.40741" fill="#EEEEEE"/>
<circle cx="262.407" cy="197.407" r="2.40741" fill="#EEEEEE"/>
<circle cx="262.407" cy="213.657" r="2.40741" fill="#EEEEEE"/>
<circle cx="262.407" cy="229.907" r="2.40741" fill="#EEEEEE"/>
<circle cx="262.407" cy="246.157" r="2.40741" fill="#EEEEEE"/>
<circle cx="262.407" cy="262.407" r="2.40741" fill="#EEEEEE"/>
<circle cx="262.407" cy="278.657" r="2.40741" fill="#EEEEEE"/>
<circle cx="262.407" cy="294.907" r="2.40741" fill="#EEEEEE"/>
<circle cx="262.407" cy="311.157" r="2.40741" fill="#EEEEEE"/>
<circle cx="262.407" cy="327.407" r="2.40741" fill="#EEEEEE"/>
<circle cx="262.407" cy="343.657" r="2.40741" fill="#EEEEEE"/>
<circle cx="262.407" cy="359.907" r="2.40741" fill="#EEEEEE"/>
<circle cx="262.407" cy="376.157" r="2.40741" fill="#EEEEEE"/>
<circle cx="278.657" cy="197.407" r="2.40741" fill="#EEEEEE"/>
<circle cx="278.657" cy="213.657" r="2.40741" fill="#EEEEEE"/>
<circle cx="278.657" cy="229.907" r="2.40741" fill="#EEEEEE"/>
<circle cx="278.657" cy="246.157" r="2.40741" fill="#EEEEEE"/>
<circle cx="278.657" cy="262.407" r="2.40741" fill="#EEEEEE"/>
<circle cx="278.657" cy="278.657" r="2.40741" fill="#EEEEEE"/>
<circle cx="278.657" cy="294.907" r="2.40741" fill="#EEEEEE"/>
<circle cx="278.657" cy="311.157" r="2.40741" fill="#EEEEEE"/>
<circle cx="278.657" cy="327.407" r="2.40741" fill="#EEEEEE"/>
<circle cx="278.657" cy="343.657" r="2.40741" fill="#EEEEEE"/>
<circle cx="278.657" cy="359.907" r="2.40741" fill="#EEEEEE"/>
<circle cx="278.657" cy="376.157" r="2.40741" fill="#EEEEEE"/>
<circle cx="294.907" cy="197.407" r="2.40741" fill="#EEEEEE"/>
<circle cx="294.907" cy="213.657" r="2.40741" fill="#EEEEEE"/>
<circle cx="294.907" cy="229.907" r="2.40741" fill="#EEEEEE"/>
<circle cx="294.907" cy="246.157" r="2.40741" fill="#EEEEEE"/>
<circle cx="294.907" cy="262.407" r="2.40741" fill="#EEEEEE"/>
<circle cx="294.907" cy="278.657" r="2.40741" fill="#EEEEEE"/>
<circle cx="294.907" cy="294.907" r="2.40741" fill="#EEEEEE"/>
<circle cx="294.907" cy="311.157" r="2.40741" fill="#EEEEEE"/>
<circle cx="294.907" cy="327.407" r="2.40741" fill="#EEEEEE"/>
<circle cx="294.907" cy="343.657" r="2.40741" fill="#EEEEEE"/>
<circle cx="294.907" cy="359.907" r="2.40741" fill="#EEEEEE"/>
<circle cx="294.907" cy="376.157" r="2.40741" fill="#EEEEEE"/>
<circle cx="311.157" cy="197.407" r="2.40741" fill="#EEEEEE"/>
<circle cx="311.157" cy="213.657" r="2.40741" fill="#EEEEEE"/>
<circle cx="311.157" cy="229.907" r="2.40741" fill="#EEEEEE"/>
<circle cx="311.157" cy="246.157" r="2.40741" fill="#EEEEEE"/>
<circle cx="311.157" cy="262.407" r="2.40741" fill="#EEEEEE"/>
<circle cx="311.157" cy="278.657" r="2.40741" fill="#EEEEEE"/>
<circle cx="311.157" cy="294.907" r="2.40741" fill="#EEEEEE"/>
<circle cx="311.157" cy="311.157" r="2.40741" fill="#EEEEEE"/>
<circle cx="311.157" cy="327.407" r="2.40741" fill="#EEEEEE"/>
<circle cx="311.157" cy="343.657" r="2.40741" fill="#EEEEEE"/>
<circle cx="311.157" cy="359.907" r="2.40741" fill="#EEEEEE"/>
<circle cx="311.157" cy="376.157" r="2.40741" fill="#EEEEEE"/>
<circle cx="327.407" cy="197.407" r="2.40741" fill="#EEEEEE"/>
<circle cx="327.407" cy="213.657" r="2.40741" fill="#EEEEEE"/>
<circle cx="327.407" cy="229.907" r="2.40741" fill="#EEEEEE"/>
<circle cx="327.407" cy="246.157" r="2.40741" fill="#EEEEEE"/>
<circle cx="327.407" cy="262.407" r="2.40741" fill="#EEEEEE"/>
<circle cx="327.407" cy="278.657" r="2.40741" fill="#EEEEEE"/>
<circle cx="327.407" cy="294.907" r="2.40741" fill="#EEEEEE"/>
<circle cx="327.407" cy="311.157" r="2.40741" fill="#EEEEEE"/>
<circle cx="327.407" cy="327.407" r="2.40741" fill="#EEEEEE"/>
<circle cx="327.407" cy="343.657" r="2.40741" fill="#EEEEEE"/>
<circle cx="327.407" cy="359.907" r="2.40741" fill="#EEEEEE"/>
<circle cx="327.407" cy="376.157" r="2.40741" fill="#EEEEEE"/>
<circle cx="343.657" cy="197.407" r="2.40741" fill="#EEEEEE"/>
<circle cx="343.657" cy="213.657" r="2.40741" fill="#EEEEEE"/>
<circle cx="343.657" cy="229.907" r="2.40741" fill="#EEEEEE"/>
<circle cx="343.657" cy="246.157" r="2.40741" fill="#EEEEEE"/>
<circle cx="343.657" cy="262.407" r="2.40741" fill="#EEEEEE"/>
<circle cx="343.657" cy="278.657" r="2.40741" fill="#EEEEEE"/>
<circle cx="343.657" cy="294.907" r="2.40741" fill="#EEEEEE"/>
<circle cx="343.657" cy="311.157" r="2.40741" fill="#EEEEEE"/>
<circle cx="343.657" cy="327.407" r="2.40741" fill="#EEEEEE"/>
<circle cx="343.657" cy="343.657" r="2.40741" fill="#EEEEEE"/>
<circle cx="343.657" cy="359.907" r="2.40741" fill="#EEEEEE"/>
<circle cx="343.657" cy="376.157" r="2.40741" fill="#EEEEEE"/>
<circle cx="359.907" cy="197.407" r="2.40741" fill="#EEEEEE"/>
<circle cx="359.907" cy="213.657" r="2.40741" fill="#EEEEEE"/>
<circle cx="359.907" cy="229.907" r="2.40741" fill="#EEEEEE"/>
<circle cx="359.907" cy="246.157" r="2.40741" fill="#EEEEEE"/>
<circle cx="359.907" cy="262.407" r="2.40741" fill="#EEEEEE"/>
<circle cx="359.907" cy="278.657" r="2.40741" fill="#EEEEEE"/>
<circle cx="359.907" cy="294.907" r="2.40741" fill="#EEEEEE"/>
<circle cx="359.907" cy="311.157" r="2.40741" fill="#EEEEEE"/>
<circle cx="359.907" cy="327.407" r="2.40741" fill="#EEEEEE"/>
<circle cx="359.907" cy="343.657" r="2.40741" fill="#EEEEEE"/>
<circle cx="359.907" cy="359.907" r="2.40741" fill="#EEEEEE"/>
<circle cx="359.907" cy="376.157" r="2.40741" fill="#EEEEEE"/>
<circle cx="376.157" cy="197.407" r="2.40741" fill="#EEEEEE"/>
<circle cx="376.157" cy="213.657" r="2.40741" fill="#EEEEEE"/>
<circle cx="376.157" cy="229.907" r="2.40741" fill="#EEEEEE"/>
<circle cx="376.157" cy="246.157" r="2.40741" fill="#EEEEEE"/>
<circle cx="376.157" cy="262.407" r="2.40741" fill="#EEEEEE"/>
<circle cx="376.157" cy="278.657" r="2.40741" fill="#EEEEEE"/>
<circle cx="376.157" cy="294.907" r="2.40741" fill="#EEEEEE"/>
<circle cx="376.157" cy="311.157" r="2.40741" fill="#EEEEEE"/>
<circle cx="376.157" cy="327.407" r="2.40741" fill="#EEEEEE"/>
<circle cx="376.157" cy="343.657" r="2.40741" fill="#EEEEEE"/>
<circle cx="376.157" cy="359.907" r="2.40741" fill="#EEEEEE"/>
<circle cx="376.157" cy="376.157" r="2.40741" fill="#EEEEEE"/>
</svg>
