<svg width="138" height="40" viewBox="0 0 138 40" fill="none" xmlns="http://www.w3.org/2000/svg">
<path fill-rule="evenodd" clip-rule="evenodd" d="M35.3064 15.5091C35.3064 15.5091 33.6427 12.999 31.041 12.999C29.9815 12.999 29.1951 13.3386 28.4859 13.6449C27.9035 13.8964 27.3732 14.1254 26.7865 14.1254C26.0553 14.1254 25.4911 13.8734 24.8965 13.6078C24.2338 13.3119 23.5333 12.999 22.5216 12.999C20.3358 12.999 16.8489 14.9622 16.8489 19.8646C16.8489 24.5841 20.2929 30.3874 22.959 30.3874C23.61 30.3874 24.0919 30.1895 24.6066 29.9781C25.1962 29.7359 25.8289 29.476 26.808 29.476C27.9387 29.476 28.4944 29.7374 29.0106 29.9802C29.4584 30.1908 29.8765 30.3874 30.6146 30.3874C33.4402 30.3874 35.9567 24.4339 35.9567 24.4339C35.9567 24.4339 32.7685 23.4042 32.7685 19.8646C32.7685 16.8823 35.3064 15.5091 35.3064 15.5091ZM30.5937 8C30.9771 10.4029 28.7913 13.3747 26.1791 13.278C25.7951 10.2206 28.6103 8.1613 30.5937 8ZM51.1616 15.7009L49.1162 21.3136H53.207L51.1954 15.7009H51.1616ZM50.3164 14.2513L45.6171 26.2858H47.2568L48.6091 22.662H53.7141L55.0326 26.2858H56.8075L52.0913 14.2513H50.3164ZM57.8049 17.5718V29.6063H59.2417V25.1228H59.2755C59.4333 25.3813 59.6277 25.5976 59.8587 25.7717C60.0897 25.9459 60.3348 26.0836 60.594 26.1847C60.8532 26.2858 61.1152 26.3589 61.38 26.4038C61.6449 26.4487 61.8844 26.4712 62.0985 26.4712C62.7634 26.4712 63.3465 26.3532 63.848 26.1173C64.3495 25.8813 64.7665 25.5582 65.0989 25.1481C65.4314 24.738 65.6793 24.2576 65.8427 23.707C66.0061 23.1564 66.0878 22.5721 66.0878 21.9541C66.0878 21.3361 66.0033 20.7518 65.8343 20.2012C65.6652 19.6506 65.4145 19.1646 65.082 18.7432C64.7496 18.3218 64.3326 17.9875 63.8311 17.7403C63.3296 17.4931 62.7408 17.3695 62.0647 17.3695C61.4561 17.3695 60.8983 17.4791 60.3912 17.6982C59.884 17.9173 59.5122 18.2684 59.2755 18.7516H59.2417V17.5718H57.8049ZM64.5665 21.8529C64.5665 22.2799 64.5214 22.6957 64.4312 23.1002C64.3411 23.5047 64.1946 23.8643 63.9917 24.1789C63.7889 24.4936 63.5212 24.7464 63.1888 24.9374C62.8563 25.1284 62.4422 25.2239 61.9463 25.2239C61.4505 25.2239 61.0279 25.1312 60.6785 24.9458C60.3292 24.7604 60.0446 24.516 59.8249 24.2126C59.6051 23.9093 59.4445 23.5581 59.3431 23.1592C59.2417 22.7603 59.191 22.3474 59.191 21.9204C59.191 21.5158 59.2389 21.1169 59.3347 20.7237C59.4305 20.3304 59.5854 19.9792 59.7995 19.6702C60.0136 19.3612 60.2897 19.1112 60.6278 18.9202C60.9659 18.7291 61.3772 18.6336 61.8618 18.6336C62.3239 18.6336 62.7267 18.7235 63.0705 18.9033C63.4142 19.0831 63.6959 19.3247 63.9157 19.6281C64.1354 19.9315 64.2988 20.277 64.4059 20.6647C64.5129 21.0523 64.5665 21.4484 64.5665 21.8529V21.8529ZM67.8289 17.5718V29.6063H69.2658V25.1228H69.2996C69.4574 25.3813 69.6517 25.5976 69.8828 25.7717C70.1138 25.9459 70.3589 26.0836 70.6181 26.1847C70.8773 26.2858 71.1393 26.3589 71.4041 26.4038C71.669 26.4487 71.9084 26.4712 72.1225 26.4712C72.7874 26.4712 73.3706 26.3532 73.8721 26.1173C74.3736 25.8813 74.7906 25.5582 75.123 25.1481C75.4555 24.738 75.7034 24.2576 75.8668 23.707C76.0302 23.1564 76.1119 22.5721 76.1119 21.9541C76.1119 21.3361 76.0274 20.7518 75.8583 20.2012C75.6893 19.6506 75.4386 19.1646 75.1061 18.7432C74.7737 18.3218 74.3567 17.9875 73.8552 17.7403C73.3537 17.4931 72.7649 17.3695 72.0887 17.3695C71.4802 17.3695 70.9224 17.4791 70.4152 17.6982C69.9081 17.9173 69.5362 18.2684 69.2996 18.7516H69.2658V17.5718H67.8289ZM74.5905 21.8529C74.5905 22.2799 74.5455 22.6957 74.4553 23.1002C74.3651 23.5047 74.2186 23.8643 74.0158 24.1789C73.8129 24.4936 73.5453 24.7464 73.2129 24.9374C72.8804 25.1284 72.4663 25.2239 71.9704 25.2239C71.4746 25.2239 71.052 25.1312 70.7026 24.9458C70.3533 24.7604 70.0687 24.516 69.849 24.2126C69.6292 23.9093 69.4686 23.5581 69.3672 23.1592C69.2658 22.7603 69.2151 22.3474 69.2151 21.9204C69.2151 21.5158 69.263 21.1169 69.3587 20.7237C69.4545 20.3304 69.6095 19.9792 69.8236 19.6702C70.0377 19.3612 70.3138 19.1112 70.6519 18.9202C70.99 18.7291 71.4013 18.6336 71.8859 18.6336C72.3479 18.6336 72.7508 18.7235 73.0945 18.9033C73.4382 19.0831 73.72 19.3247 73.9397 19.6281C74.1595 19.9315 74.3229 20.277 74.4299 20.6647C74.537 21.0523 74.5905 21.4484 74.5905 21.8529V21.8529ZM89.7196 17.774H91.241C91.2184 17.1111 91.0917 16.5408 90.8606 16.0632C90.6296 15.5857 90.3141 15.1896 89.914 14.875C89.5139 14.5603 89.0491 14.33 88.5194 14.1839C87.9898 14.0378 87.415 13.9648 86.7952 13.9648C86.243 13.9648 85.7049 14.035 85.1809 14.1755C84.6569 14.3159 84.1892 14.5294 83.7779 14.816C83.3665 15.1025 83.0369 15.4677 82.789 15.9116C82.541 16.3554 82.4171 16.8807 82.4171 17.4875C82.4171 18.0381 82.527 18.496 82.7467 18.8612C82.9665 19.2264 83.2595 19.5241 83.6257 19.7545C83.992 19.9848 84.4061 20.1703 84.8682 20.3107C85.3302 20.4512 85.8007 20.5748 86.2797 20.6815C86.7586 20.7883 87.2291 20.8922 87.6911 20.9933C88.1532 21.0945 88.5673 21.2265 88.9336 21.3894C89.2998 21.5524 89.5928 21.7631 89.8126 22.0215C90.0323 22.2799 90.1422 22.617 90.1422 23.0328C90.1422 23.471 90.0521 23.8306 89.8718 24.1115C89.6914 24.3924 89.4548 24.6144 89.1618 24.7773C88.8688 24.9402 88.5392 25.0554 88.1729 25.1228C87.8066 25.1902 87.4432 25.2239 87.0826 25.2239C86.6318 25.2239 86.1923 25.1678 85.7641 25.0554C85.3358 24.943 84.9611 24.7689 84.64 24.5329C84.3188 24.2969 84.0596 23.9963 83.8624 23.6311C83.6652 23.266 83.5666 22.8305 83.5666 22.3249H82.0452C82.0452 23.0553 82.1776 23.6873 82.4424 24.2211C82.7073 24.7548 83.0679 25.193 83.5243 25.5358C83.9807 25.8785 84.5104 26.1341 85.1133 26.3027C85.7162 26.4712 86.3557 26.5555 87.0319 26.5555C87.5841 26.5555 88.1391 26.4909 88.6969 26.3617C89.2548 26.2324 89.7591 26.0246 90.2098 25.738C90.6606 25.4515 91.0297 25.0807 91.317 24.6256C91.6044 24.1705 91.7481 23.6227 91.7481 22.9822C91.7481 22.3867 91.6382 21.8923 91.4185 21.499C91.1987 21.1057 90.9057 20.7798 90.5395 20.5214C90.1732 20.263 89.7591 20.0579 89.297 19.9062C88.835 19.7545 88.3645 19.6225 87.8855 19.5101C87.4066 19.3977 86.9361 19.2938 86.474 19.1983C86.012 19.1028 85.5979 18.982 85.2316 18.8359C84.8653 18.6898 84.5723 18.5016 84.3526 18.2713C84.1328 18.0409 84.023 17.7403 84.023 17.3695C84.023 16.9762 84.099 16.6476 84.2512 16.3835C84.4033 16.1194 84.6062 15.9087 84.8597 15.7514C85.1133 15.5941 85.4035 15.4818 85.7303 15.4143C86.0571 15.3469 86.3895 15.3132 86.7276 15.3132C87.5615 15.3132 88.2461 15.507 88.7814 15.8947C89.3167 16.2824 89.6295 16.9088 89.7196 17.774V17.774ZM95.4501 17.5718V14.9592H94.0132V17.5718H92.5257V18.8359H94.0132V24.3812C94.0132 24.7857 94.0527 25.1116 94.1316 25.3588C94.2105 25.606 94.3316 25.797 94.495 25.9319C94.6584 26.0667 94.8725 26.1594 95.1374 26.21C95.4022 26.2605 95.7205 26.2858 96.0924 26.2858H97.1912V25.0217H96.5319C96.3066 25.0217 96.1234 25.0133 95.9826 24.9964C95.8417 24.9795 95.7318 24.943 95.6529 24.8868C95.574 24.8307 95.5205 24.752 95.4923 24.6509C95.4642 24.5497 95.4501 24.4149 95.4501 24.2464V18.8359H97.1912V17.5718H95.4501ZM99.8282 21.9372C99.8282 21.4091 99.8986 20.94 100.04 20.5298C100.18 20.1197 100.375 19.7742 100.623 19.4932C100.871 19.2123 101.161 18.9988 101.493 18.8528C101.826 18.7067 102.178 18.6336 102.55 18.6336C102.922 18.6336 103.274 18.7067 103.606 18.8528C103.939 18.9988 104.229 19.2123 104.477 19.4932C104.725 19.7742 104.919 20.1197 105.06 20.5298C105.201 20.94 105.271 21.4091 105.271 21.9372C105.271 22.4653 105.201 22.9345 105.06 23.3446C104.919 23.7548 104.725 24.0975 104.477 24.3728C104.229 24.6481 103.939 24.8588 103.606 25.0048C103.274 25.1509 102.922 25.2239 102.55 25.2239C102.178 25.2239 101.826 25.1509 101.493 25.0048C101.161 24.8588 100.871 24.6481 100.623 24.3728C100.375 24.0975 100.18 23.7548 100.04 23.3446C99.8986 22.9345 99.8282 22.4653 99.8282 21.9372V21.9372ZM98.3069 21.9372C98.3069 22.5777 98.397 23.1733 98.5773 23.7239C98.7576 24.2745 99.0281 24.7548 99.3887 25.165C99.7493 25.5751 100.194 25.8953 100.724 26.1257C101.254 26.356 101.862 26.4712 102.55 26.4712C103.248 26.4712 103.86 26.356 104.384 26.1257C104.908 25.8953 105.35 25.5751 105.711 25.165C106.071 24.7548 106.342 24.2745 106.522 23.7239C106.703 23.1733 106.793 22.5777 106.793 21.9372C106.793 21.2967 106.703 20.6984 106.522 20.1422C106.342 19.5859 106.071 19.1028 105.711 18.6926C105.35 18.2825 104.908 17.9594 104.384 17.7235C103.86 17.4875 103.248 17.3695 102.55 17.3695C101.862 17.3695 101.254 17.4875 100.724 17.7235C100.194 17.9594 99.7493 18.2825 99.3887 18.6926C99.0281 19.1028 98.7576 19.5859 98.5773 20.1422C98.397 20.6984 98.3069 21.2967 98.3069 21.9372V21.9372ZM108.432 17.5718V26.2858H109.869V22.4092C109.869 21.8473 109.926 21.3501 110.038 20.9175C110.151 20.4849 110.331 20.1169 110.579 19.8135C110.827 19.5101 111.154 19.2797 111.56 19.1224C111.965 18.9651 112.456 18.8865 113.03 18.8865V17.3695C112.253 17.347 111.61 17.5044 111.103 17.8415C110.596 18.1786 110.168 18.7011 109.818 19.409H109.785V17.5718H108.432ZM119.876 21.0945H114.856C114.878 20.7574 114.952 20.4399 115.076 20.1422C115.2 19.8444 115.369 19.5831 115.583 19.3584C115.797 19.1337 116.053 18.9567 116.352 18.8275C116.651 18.6982 116.986 18.6336 117.358 18.6336C117.718 18.6336 118.048 18.6982 118.347 18.8275C118.645 18.9567 118.904 19.1309 119.124 19.35C119.344 19.5691 119.519 19.8303 119.648 20.1337C119.778 20.4371 119.854 20.7574 119.876 21.0945V21.0945ZM121.262 23.5216H119.843C119.719 24.0947 119.462 24.5217 119.073 24.8026C118.685 25.0835 118.186 25.2239 117.577 25.2239C117.104 25.2239 116.693 25.1453 116.343 24.988C115.994 24.8307 115.707 24.62 115.481 24.3559C115.256 24.0919 115.093 23.7885 114.991 23.4457C114.89 23.103 114.845 22.7406 114.856 22.3586H121.398C121.42 21.8305 121.372 21.2743 121.254 20.6899C121.136 20.1056 120.922 19.5663 120.612 19.0719C120.302 18.5775 119.89 18.1701 119.378 17.8499C118.865 17.5296 118.22 17.3695 117.442 17.3695C116.845 17.3695 116.296 17.4819 115.794 17.7066C115.293 17.9313 114.859 18.246 114.492 18.6505C114.126 19.055 113.842 19.5326 113.639 20.0832C113.436 20.6338 113.335 21.2405 113.335 21.9035C113.357 22.5665 113.456 23.1789 113.63 23.7407C113.805 24.3025 114.067 24.7857 114.416 25.1902C114.766 25.5948 115.197 25.9094 115.71 26.1341C116.222 26.3589 116.828 26.4712 117.527 26.4712C118.518 26.4712 119.341 26.224 119.995 25.7296C120.648 25.2352 121.071 24.4992 121.262 23.5216V23.5216Z" fill="white"/>
<path d="M1 30V10C1 5.02944 5.02944 1 10 1H128C132.971 1 137 5.02944 137 10V30C137 34.9706 132.971 39 128 39H10C5.02944 39 1 34.9706 1 30Z" stroke="white" stroke-width="2"/>
</svg>
