<svg width="138" height="40" viewBox="0 0 138 40" fill="none" xmlns="http://www.w3.org/2000/svg">
<path d="M1 30V10C1 5.02944 5.02944 1 10 1H128C132.971 1 137 5.02944 137 10V30C137 34.9706 132.971 39 128 39H10C5.02944 39 1 34.9706 1 30Z" stroke="white" stroke-width="2"/>
<path fill-rule="evenodd" clip-rule="evenodd" d="M82.7005 24.7241C82.068 24.6648 81.9345 24.5475 81.9345 23.7931L81.9391 12.7806C82.0155 12.1011 82.194 11.8887 82.7906 11.54H80.0381L78.5962 12.2409H80.094L80.1014 23.7856V24.2189C80.1014 24.5695 80.0389 24.6506 79.6983 25.0932L79.6982 25.0933L79.6169 25.199L79.5801 25.2471H82.972L83.6838 24.8196C83.5198 24.7999 83.3549 24.7857 83.1895 24.7715C83.0269 24.7575 82.8638 24.7435 82.7005 24.7241ZM90.4744 24.8196L91.3949 23.9433C91.4839 23.8535 91.359 23.9191 91.359 23.9191C90.7367 24.2293 90.0586 24.5302 89.1449 24.5302C87.3158 24.5302 85.6606 23.0946 85.1809 20.6261L86.6627 20.5099L91.1873 18.6658L91.1825 18.6502C91.0435 18.2001 90.7896 17.3781 89.839 16.7439C89.2607 16.3751 88.5494 16.2002 87.857 16.2002C85.8756 16.2002 83.4465 17.6766 83.4465 20.6871C83.4465 22.1412 84.0437 23.8098 85.4097 24.7805C86.3929 25.498 87.3568 25.5383 87.9717 25.5383C88.5494 25.5383 89.1996 25.4646 89.839 25.1718C89.9798 25.1069 90.1208 25.0244 90.2622 24.9416C90.3328 24.9003 90.4035 24.8589 90.4744 24.8196ZM89.2236 18.5121C89.2236 18.7826 89.0325 18.8988 88.6652 19.0334L85.1616 20.5674C85.1549 20.4483 85.146 20.3291 85.1372 20.2108L85.1372 20.2106L85.1372 20.2104L85.1372 20.2102L85.1371 20.2101L85.1371 20.2099L85.1371 20.2098L85.1371 20.2097C85.1201 19.9822 85.1034 19.7578 85.1034 19.5427C85.1034 17.4448 86.5469 16.8406 87.3158 16.8406C88.3538 16.8406 89.2236 17.7365 89.2236 18.5121ZM76.6741 17.153C77.1162 17.5196 78.0384 18.2975 78.0384 19.7728C78.0384 21.2107 77.2348 21.8886 76.4243 22.5301L76.3898 22.5651C76.1495 22.8082 75.8848 23.0761 75.8848 23.4801C75.8848 23.9019 76.1648 24.1341 76.3731 24.3069L76.385 24.3167L77.0802 24.8582C77.9255 25.578 78.696 26.238 78.696 27.5786C78.696 29.405 76.9439 31.2468 73.633 31.2468C70.844 31.2468 69.4957 29.9067 69.4957 28.4699C69.4957 27.7708 69.8408 26.7806 70.9792 26.1022C72.1566 25.376 73.746 25.2706 74.6198 25.2126L74.6545 25.2103L74.6143 25.158C74.3545 24.8212 74.0756 24.4596 74.0756 23.8875C74.0756 23.593 74.1541 23.405 74.2385 23.203L74.2385 23.2029C74.2484 23.1792 74.2584 23.1552 74.2684 23.1308L74.2549 23.1321C74.0489 23.1518 73.8417 23.1717 73.653 23.1717C71.6117 23.1717 70.4579 21.6354 70.4579 20.1215C70.4579 19.2285 70.8617 18.2377 71.691 17.5196C72.7883 16.6081 74.0967 16.4511 75.1365 16.4511H79.1027L77.8696 17.153H76.6741ZM74.8673 25.7523C75.0578 25.7523 75.1524 25.7523 75.3104 25.7731C76.7705 26.8232 77.4053 27.3456 77.4053 28.3359C77.4053 29.539 76.4243 30.4326 74.5764 30.4326C72.5197 30.4326 71.1902 29.4401 71.1902 28.0637C71.1902 26.6845 72.4216 26.2201 72.8477 26.0631C73.653 25.7903 74.6927 25.7523 74.8673 25.7523ZM76.3473 20.6647C76.3473 21.0162 76.3086 21.6354 75.8637 22.0836C75.5591 22.3909 75.0401 22.6274 74.5576 22.6274C72.9041 22.6274 72.1524 20.4708 72.1524 19.1704C72.1524 18.6658 72.2499 18.141 72.5756 17.7365C72.8824 17.3458 73.4231 17.0932 73.9222 17.0932C75.522 17.0932 76.3473 19.2682 76.3473 20.6647ZM60.045 20.9184C60.045 23.0946 61.6819 25.498 64.7412 25.498C67.8799 25.498 69.6314 23.0733 69.6314 20.7815C69.6314 18.435 67.8594 16.2002 65.0298 16.2002C62.1028 16.2002 60.045 18.3758 60.045 20.9184ZM67.1481 23.9272C67.6135 23.3058 67.7265 22.5301 67.7265 21.774C67.7265 20.064 66.9188 16.8026 64.5319 16.8026C63.8971 16.8026 63.2578 17.0529 62.7969 17.4614C62.0452 18.141 61.9112 18.9949 61.9112 19.8327C61.9112 21.751 62.8511 24.9151 65.1838 24.9151C65.9367 24.9151 66.705 24.5475 67.1481 23.9272ZM54.4983 25.498C51.4384 25.498 49.8043 23.0946 49.8043 20.9184C49.8043 18.3758 51.8627 16.2002 54.7886 16.2002C57.6164 16.2002 59.3868 18.435 59.3868 20.7815C59.3868 23.0733 57.6375 25.498 54.4983 25.498ZM57.4829 21.774C57.4829 22.5301 57.3677 23.3058 56.9057 23.9272C56.4614 24.5475 55.6943 24.9151 54.9432 24.9151C52.6144 24.9151 51.6705 21.751 51.6705 19.8327C51.6705 18.9949 51.8039 18.141 52.5568 17.4614C53.0188 17.0529 53.6513 16.8026 54.2884 16.8026C56.673 16.8026 57.4829 20.064 57.4829 21.774ZM46.0006 25.4203L48.5809 24.8242V22.6049C48.5809 22.4196 48.5986 21.8926 48.6174 21.7269C48.6528 21.5819 48.6699 21.545 48.7959 21.4369L49.2636 20.9829H45.44L43.9958 21.7654L46.7204 21.6175V24.5521C46.1803 24.7707 45.5854 25.0049 44.4299 25.0049C40.4973 25.0049 38.0453 21.785 38.0453 18.3619C38.0453 15.1748 40.1927 12.9918 43.0393 12.9918C45.1639 12.9918 46.2855 14.0969 46.8967 14.6991L46.9006 14.703L46.4501 15.4274L47.082 15.2847L48.5809 13.8485L48.5248 13.8091C48.126 13.5285 47.4909 13.0817 46.2008 12.7162C45.3476 12.4814 44.411 12.337 43.4375 12.337C38.8359 12.337 36.1489 15.6121 36.1489 19.1445C36.1489 22.037 38.0453 25.7328 43.0222 25.7328C44.0164 25.7328 44.9552 25.5866 46.0006 25.4203ZM96.9427 24.0261V28.9717H95.9692V16.3872H96.9427V17.8205C97.577 16.8941 98.7359 16.1599 100.082 16.1599C102.496 16.1599 104.122 18.0075 104.122 20.9322C104.122 23.8374 102.496 25.7236 100.082 25.7236C98.8112 25.7236 97.6728 25.0624 96.9427 24.0261ZM99.9177 17.0466C101.937 17.0466 103.076 18.7279 103.076 20.9322C103.076 23.14 101.937 24.8357 99.9177 24.8357C98.6635 24.8357 97.464 23.8052 96.9427 22.9363V18.908C97.464 18.0409 98.6635 17.0466 99.9177 17.0466ZM106.425 12.9124H105.452V25.4969H106.425V12.9124ZM117.349 28.1581C117.558 28.2519 117.913 28.3094 118.138 28.3094C118.734 28.3094 119.148 28.0637 119.521 27.196L120.231 25.5728L116.396 16.3872H117.482L120.771 24.3472L124.029 16.3872H125.131L120.453 27.5004C119.968 28.6454 119.204 29.1961 118.155 29.1961C117.84 29.1961 117.425 29.1397 117.182 29.0643L117.349 28.1581ZM114.356 24.643C114.392 24.8754 114.441 25.1539 114.506 25.4698H115.627C115.54 25.1758 115.475 24.872 115.434 24.5676C115.394 24.2638 115.378 23.9519 115.378 23.6291V19.1353C115.378 18.1732 115.054 17.4373 114.407 16.9281C113.76 16.4137 112.901 16.1559 111.839 16.1559C110.774 16.1559 109.909 16.4177 109.249 16.9384C108.585 17.4597 108.273 18.0633 108.309 18.7515L108.33 18.8004H109.326C109.326 18.29 109.553 17.8665 110.002 17.5247C110.456 17.1899 111.051 17.0178 111.785 17.0178C112.588 17.0178 113.207 17.206 113.649 17.5783C114.089 17.95 114.309 18.4626 114.309 19.1146V20.2464H112.038C110.821 20.2464 109.838 20.4995 109.077 21.0088C108.316 21.5157 107.935 22.1786 107.935 22.995C107.935 23.8127 108.198 24.4588 108.722 24.9359C109.247 25.4134 109.983 25.6488 110.932 25.6488C111.719 25.6488 112.294 25.4888 112.898 25.1626C113.502 24.8386 113.975 24.4272 114.309 23.9329C114.309 24.174 114.326 24.4111 114.356 24.643ZM111.051 24.754C111.878 24.754 112.472 24.5676 113.08 24.1988C113.683 23.8322 114.094 23.3541 114.309 22.7752V21.026H112.027C111.156 21.026 110.434 21.2205 109.867 21.6129C109.298 22.0042 109.01 22.4778 109.01 23.0284C109.01 23.548 109.193 23.9634 109.556 24.2782C109.919 24.5964 110.417 24.754 111.051 24.754V24.754Z" fill="white"/>
<path fill-rule="evenodd" clip-rule="evenodd" d="M12.5522 28.9324C12.2389 28.8483 12.0349 28.5381 12.0349 28.0581V12.2137C12.0349 11.7692 12.2076 11.4694 12.4814 11.3604V11.3604L20.2902 20.1902L12.5522 28.9324V28.9324ZM13.6272 28.5961L23.0266 23.2843L20.7372 20.6956L13.6272 28.5961V28.5961ZM23.0913 17.0256L13.8229 11.7866L20.7507 19.6699L23.0913 17.0256V17.0256ZM23.7201 17.381L27.351 19.4334C28.0384 19.822 28.0447 20.4484 27.351 20.8404L23.6283 22.9442L21.2001 20.1812L23.7201 17.381V17.381Z" fill="white"/>
</svg>
