<svg width="29" height="29" viewBox="0 0 29 29" fill="none" xmlns="http://www.w3.org/2000/svg">
<path fill-rule="evenodd" clip-rule="evenodd" d="M15.8414 15.3672H3.70147C2.79325 15.3672 2.05713 16.1461 2.05713 17.1068V18.7501C2.05713 19.7108 2.79325 20.4897 3.70147 20.4897H15.8414C16.7496 20.4897 17.4857 19.7108 17.4857 18.7501V17.1068C17.4857 16.1461 16.7496 15.3672 15.8414 15.3672" fill="#FF6384"/>
<path fill-rule="evenodd" clip-rule="evenodd" d="M14.7909 23.5635H1.66627C0.74594 23.5635 0 24.3423 0 25.303V26.9463C0 27.9072 0.74594 28.686 1.66627 28.686H14.7909C15.711 28.686 16.4571 27.9072 16.4571 26.9463V25.303C16.4571 24.3423 15.711 23.5635 14.7909 23.5635" fill="#50E3C2"/>
<path fill-rule="evenodd" clip-rule="evenodd" d="M27.1455 7.17188H6.79781C5.88402 7.17188 5.14307 7.95072 5.14307 8.9114V10.5547C5.14307 11.5156 5.88402 12.2944 6.79781 12.2944H27.1455C28.0594 12.2944 28.8002 11.5156 28.8002 10.5547V8.9114C28.8002 7.95072 28.0594 7.17188 27.1455 7.17188" fill="#4080FF"/>
<path fill-rule="evenodd" clip-rule="evenodd" d="M11.6738 0H1.6976C0.760148 0 0 0.778868 0 1.7394V3.38295C0 4.34366 0.760148 5.12253 1.6976 5.12253H11.6738C12.6115 5.12253 13.3714 4.34366 13.3714 3.38295V1.7394C13.3714 0.778868 12.6115 0 11.6738 0" fill="#FFB74D"/>
</svg>
