<svg width="142" height="29" viewBox="0 0 142 29" fill="none" xmlns="http://www.w3.org/2000/svg">
<path fill-rule="evenodd" clip-rule="evenodd" d="M15.8414 15.3672H3.70147C2.79325 15.3672 2.05713 16.1461 2.05713 17.1068V18.7501C2.05713 19.7108 2.79325 20.4897 3.70147 20.4897H15.8414C16.7496 20.4897 17.4857 19.7108 17.4857 18.7501V17.1068C17.4857 16.1461 16.7496 15.3672 15.8414 15.3672" fill="#FF6384"/>
<path fill-rule="evenodd" clip-rule="evenodd" d="M14.7909 23.5635H1.66627C0.74594 23.5635 0 24.3423 0 25.303V26.9463C0 27.9072 0.74594 28.686 1.66627 28.686H14.7909C15.711 28.686 16.4571 27.9072 16.4571 26.9463V25.303C16.4571 24.3423 15.711 23.5635 14.7909 23.5635" fill="#50E3C2"/>
<path fill-rule="evenodd" clip-rule="evenodd" d="M27.1455 7.17188H6.79781C5.88402 7.17188 5.14307 7.95072 5.14307 8.9114V10.5547C5.14307 11.5156 5.88402 12.2944 6.79781 12.2944H27.1455C28.0594 12.2944 28.8002 11.5156 28.8002 10.5547V8.9114C28.8002 7.95072 28.0594 7.17188 27.1455 7.17188" fill="#4080FF"/>
<path fill-rule="evenodd" clip-rule="evenodd" d="M11.6738 0H1.6976C0.760148 0 0 0.778868 0 1.7394V3.38295C0 4.34366 0.760148 5.12253 1.6976 5.12253H11.6738C12.6115 5.12253 13.3714 4.34366 13.3714 3.38295V1.7394C13.3714 0.778868 12.6115 0 11.6738 0" fill="#FFB74D"/>
<path d="M51.4607 13.4017C51.4238 13.7712 51.3683 14.1838 51.2944 14.6396C51.2205 15.083 51.1035 15.5387 50.9434 16.0068C50.7956 16.4625 50.5924 16.9059 50.3337 17.337C50.075 17.7681 49.7425 18.1561 49.336 18.501C48.9295 18.8336 48.4368 19.1046 47.8579 19.314C47.2914 19.511 46.6139 19.6096 45.8256 19.6096C45.025 19.6096 44.3414 19.4987 43.7748 19.277C43.2082 19.043 42.7463 18.7289 42.3891 18.3347C42.0319 17.9283 41.7733 17.4602 41.6131 16.9306C41.453 16.4009 41.3729 15.8343 41.3729 15.2308C41.3729 14.9598 41.3853 14.5965 41.4099 14.1407C41.4345 13.6727 41.4653 13.1677 41.5023 12.6257C41.5515 12.0838 41.6008 11.5233 41.6501 10.9444C41.6993 10.3532 41.7425 9.79277 41.7794 9.26313C41.8287 8.73349 41.8718 8.25928 41.9087 7.84049C41.9457 7.40939 41.9703 7.08299 41.9826 6.86128C41.995 6.62725 42.0258 6.47944 42.075 6.41786C42.1243 6.34395 42.1982 6.307 42.2967 6.307H43.3129C44.0642 6.307 44.5693 6.46713 44.8279 6.78737C45.0866 7.10762 45.2159 7.58183 45.2159 8.21001C45.2159 8.24696 45.2036 8.41324 45.179 8.70885C45.1666 8.99215 45.142 9.34319 45.1051 9.76197C45.0804 10.1808 45.0496 10.6365 45.0127 11.1292C44.988 11.6219 44.9572 12.0899 44.9203 12.5333C44.8957 12.9768 44.871 13.3647 44.8464 13.6973C44.8341 14.0299 44.8279 14.2516 44.8279 14.3624C44.8279 14.5718 44.8341 14.812 44.8464 15.083C44.871 15.354 44.9203 15.6126 44.9942 15.859C45.0804 16.1053 45.2097 16.3147 45.3822 16.4872C45.5669 16.6473 45.8256 16.7273 46.1582 16.7273C46.577 16.7273 46.9157 16.5857 47.1743 16.3024C47.4453 16.0191 47.6485 15.6804 47.784 15.2862C47.9318 14.8921 48.0304 14.4918 48.0797 14.0853C48.1412 13.6788 48.1843 13.3463 48.209 13.0876C48.2582 12.4594 48.3075 11.8128 48.3568 11.1477C48.4184 10.4825 48.4676 9.86051 48.5046 9.2816C48.5539 8.7027 48.5908 8.19769 48.6154 7.76659C48.6401 7.33549 48.6524 7.03988 48.6524 6.87975C48.6524 6.63341 48.6709 6.47944 48.7078 6.41786C48.7448 6.34395 48.8248 6.307 48.948 6.307H49.9642C50.383 6.307 50.7094 6.34395 50.9434 6.41786C51.1897 6.49176 51.3745 6.5903 51.4977 6.71347C51.6208 6.83664 51.6947 6.97829 51.7194 7.13841C51.7563 7.29854 51.7748 7.46482 51.7748 7.63726C51.7748 7.79738 51.7625 8.09915 51.7379 8.54257C51.7255 8.98599 51.7071 9.49099 51.6824 10.0576C51.6578 10.6242 51.627 11.2092 51.59 11.8128C51.5531 12.4163 51.51 12.946 51.4607 13.4017ZM59.6543 9.07837C60.8122 9.07837 61.6805 9.43557 62.2594 10.15C62.8507 10.8644 63.1463 11.9914 63.1463 13.531C63.1463 14.4918 63.0354 15.3478 62.8137 16.0992C62.592 16.8505 62.2841 17.491 61.8899 18.0206C61.4958 18.538 61.0339 18.9321 60.5042 19.2031C59.9746 19.4741 59.4018 19.6096 58.786 19.6096C58.1332 19.6096 57.622 19.4679 57.2525 19.1846C56.883 18.9013 56.5935 18.501 56.3841 17.9837C56.3472 18.4271 56.3164 18.7658 56.2918 18.9999C56.2671 19.2339 56.2486 19.4186 56.2363 19.5541C56.224 19.7019 56.2117 19.8313 56.1994 19.9421C56.1994 20.053 56.1871 20.2008 56.1624 20.3855C56.1501 20.5703 56.1316 20.8228 56.107 21.1431C56.0824 21.4633 56.0454 21.9067 55.9961 22.4733C55.9838 22.6211 55.953 22.7197 55.9038 22.7689C55.8545 22.8182 55.7498 22.8428 55.5897 22.8428H54.9246C54.5427 22.8428 54.2286 22.7997 53.9823 22.7135C53.7483 22.6396 53.5573 22.5287 53.4095 22.3809C53.274 22.2331 53.1755 22.0484 53.1139 21.8267C53.0647 21.6173 53.04 21.3709 53.04 21.0876C53.04 20.9645 53.0585 20.6319 53.0954 20.0899C53.1324 19.548 53.1755 18.9013 53.2248 18.15C53.2864 17.3863 53.348 16.5672 53.4095 15.6927C53.4834 14.8182 53.5512 13.9868 53.6128 13.1985C53.6744 12.3979 53.7236 11.6896 53.7606 11.0738C53.8098 10.4579 53.8468 10.033 53.8714 9.79892C53.8837 9.52795 53.9145 9.36782 53.9638 9.31855C54.0008 9.2816 54.0993 9.26313 54.2594 9.26313H54.98C55.6451 9.26313 56.1255 9.40477 56.4211 9.68807C56.729 9.95905 56.883 10.2855 56.883 10.6673C57.1663 10.1007 57.5296 9.69423 57.9731 9.44788C58.4288 9.20154 58.9892 9.07837 59.6543 9.07837ZM58.3056 11.5356C57.6774 11.5356 57.2155 11.8066 56.9199 12.3486C56.6243 12.8905 56.4765 13.6296 56.4765 14.5657C56.4765 14.8859 56.495 15.2 56.5319 15.5079C56.5812 15.8159 56.6613 16.093 56.7721 16.3393C56.883 16.5857 57.0308 16.7828 57.2155 16.9306C57.4126 17.0784 57.659 17.1523 57.9546 17.1523C58.4842 17.1523 58.9276 16.8936 59.2848 16.3763C59.642 15.859 59.8206 15.046 59.8206 13.9375C59.8206 13.6296 59.796 13.334 59.7467 13.0507C59.7098 12.755 59.6359 12.4964 59.525 12.2747C59.4142 12.053 59.2602 11.8744 59.0631 11.7389C58.866 11.6034 58.6135 11.5356 58.3056 11.5356Z" fill="#F06184"/>
<path d="M65.3475 6.58414C65.3598 6.4856 65.3967 6.41786 65.4583 6.38091C65.5322 6.33164 65.6 6.307 65.6616 6.307C66.4991 6.307 67.2813 6.28237 68.008 6.2331C68.747 6.17151 69.3259 6.14072 69.7447 6.14072C70.7917 6.14072 71.6662 6.24542 72.3683 6.45481C73.0827 6.6642 73.6554 6.99061 74.0865 7.43402C74.5299 7.87744 74.844 8.45019 75.0288 9.15227C75.2135 9.85435 75.3059 10.6981 75.3059 11.6835C75.3059 12.6811 75.2012 13.6604 74.9918 14.6211C74.7948 15.5695 74.4437 16.4133 73.9387 17.1523C73.4337 17.8913 72.7501 18.4887 71.8879 18.9444C71.038 19.3879 69.9603 19.6096 68.6546 19.6096C68.0511 19.6096 67.4968 19.5972 66.9918 19.5726C66.4991 19.548 66.0742 19.4741 65.717 19.3509C65.3598 19.2277 65.0827 19.043 64.8856 18.7966C64.6885 18.5503 64.59 18.2116 64.59 17.7805C64.59 17.6203 64.5961 17.3802 64.6084 17.0599C64.6331 16.7397 64.6577 16.3578 64.6823 15.9144C64.7193 15.471 64.7563 14.9845 64.7932 14.4548C64.8425 13.9129 64.8917 13.3463 64.941 12.755C65.0395 11.5356 65.1135 10.5626 65.1627 9.83588C65.2243 9.10916 65.2613 8.54257 65.2736 8.13611C65.2982 7.71732 65.3105 7.40323 65.3105 7.19384C65.3228 6.98445 65.3352 6.78121 65.3475 6.58414ZM68.784 16.6904C69.4737 16.6904 70.0218 16.5426 70.4283 16.247C70.8471 15.9514 71.1673 15.5757 71.3891 15.1199C71.6108 14.6642 71.7586 14.1654 71.8325 13.6234C71.9064 13.0815 71.9433 12.5703 71.9433 12.0899C71.9433 11.5726 71.9064 11.123 71.8325 10.7412C71.7709 10.347 71.6539 10.0206 71.4814 9.76197C71.3213 9.50331 71.0934 9.3124 70.7978 9.18922C70.5022 9.05374 70.1327 8.98599 69.6893 8.98599C69.5538 8.98599 69.3814 8.99215 69.172 9.00447C68.9626 9.01678 68.7101 9.03526 68.4145 9.05989C68.3898 9.51563 68.359 10.0576 68.3221 10.6858C68.2851 11.3016 68.242 11.9544 68.1927 12.6442C68.1558 13.3216 68.1127 14.0114 68.0634 14.7135C68.0141 15.4032 67.9649 16.0437 67.9156 16.635C68.1004 16.6596 68.2666 16.6781 68.4145 16.6904C68.5623 16.6904 68.6854 16.6904 68.784 16.6904ZM78.6189 19.4248C78.2371 19.4248 77.923 19.3879 77.6767 19.314C77.4426 19.2277 77.2517 19.1107 77.1039 18.9629C76.9684 18.8151 76.8699 18.6365 76.8083 18.4271C76.759 18.2054 76.7344 17.9529 76.7344 17.6696C76.7344 17.4848 76.7405 17.2262 76.7529 16.8936C76.7775 16.5487 76.8144 16.0807 76.8637 15.4895C76.913 14.8859 76.9684 14.1284 77.03 13.2169C77.1039 12.2932 77.1901 11.1538 77.2887 9.79892C77.301 9.52795 77.3318 9.36782 77.381 9.31855C77.418 9.2816 77.5165 9.26313 77.6767 9.26313H78.3972C78.779 9.26313 79.087 9.30008 79.321 9.37398C79.5673 9.44788 79.7583 9.55874 79.8937 9.70655C80.0416 9.85435 80.1401 10.033 80.1894 10.2423C80.2509 10.4517 80.2817 10.6858 80.2817 10.9444C80.2817 11.1292 80.2694 11.4063 80.2448 11.7758C80.2201 12.1453 80.1832 12.6504 80.1339 13.2908C80.097 13.919 80.0416 14.7073 79.9676 15.6557C79.8937 16.5919 79.8014 17.725 79.6905 19.0553C79.6782 19.2031 79.6474 19.3016 79.5981 19.3509C79.5489 19.4002 79.4442 19.4248 79.284 19.4248H78.6189ZM77.3071 7.08299C77.3071 6.5903 77.4857 6.20231 77.8429 5.91901C78.2001 5.63572 78.6805 5.49407 79.284 5.49407C79.8137 5.49407 80.1955 5.60492 80.4295 5.82663C80.6759 6.03602 80.7991 6.31932 80.7991 6.67652C80.7991 7.13225 80.6266 7.51409 80.2817 7.82202C79.9492 8.11763 79.4565 8.26543 78.8037 8.26543C77.806 8.26543 77.3071 7.87129 77.3071 7.08299ZM81.3635 17.1523C81.3635 16.0437 81.8623 15.1754 82.86 14.5472C83.8577 13.919 85.3296 13.5803 87.2757 13.531C87.2881 13.3955 87.2942 13.2847 87.2942 13.1985C87.3065 13.0999 87.3127 12.9829 87.3127 12.8474C87.3127 12.4533 87.2388 12.1392 87.091 11.9052C86.9432 11.6711 86.6352 11.5541 86.1672 11.5541C85.9085 11.5541 85.6991 11.5911 85.539 11.665C85.3789 11.7389 85.2496 11.8436 85.151 11.9791C85.0525 12.1022 84.9724 12.2562 84.9108 12.441C84.8493 12.6257 84.7938 12.829 84.7446 13.0507C84.7199 13.1615 84.6645 13.2354 84.5783 13.2724C84.4921 13.297 84.3566 13.3093 84.1718 13.3093C82.9155 13.3093 82.2873 12.8351 82.2873 11.8867C82.2873 11.5049 82.3735 11.1415 82.5459 10.7966C82.7307 10.4517 82.9955 10.1561 83.3404 9.90978C83.6976 9.65112 84.141 9.44788 84.6707 9.30008C85.2003 9.15227 85.8162 9.07837 86.5182 9.07837C87.8854 9.07837 88.877 9.36166 89.4928 9.92826C90.1087 10.4948 90.4166 11.2955 90.4166 12.3301C90.4166 12.4656 90.3981 12.7119 90.3612 13.0691C90.3366 13.414 90.2996 13.7835 90.2503 14.1777C90.2134 14.5595 90.1764 14.9229 90.1395 15.2678C90.1149 15.6126 90.1025 15.8528 90.1025 15.9883C90.1025 16.2962 90.158 16.5179 90.2688 16.6534C90.3797 16.7766 90.5028 16.8628 90.6383 16.9121C90.7861 16.9614 90.9155 16.9983 91.0263 17.023C91.1372 17.0476 91.1926 17.1092 91.1926 17.2077C91.1926 17.4787 91.1557 17.7558 91.0817 18.0391C91.0078 18.3224 90.8847 18.5811 90.7122 18.8151C90.5521 19.0491 90.3242 19.24 90.0286 19.3879C89.7453 19.5357 89.3943 19.6096 88.9755 19.6096C88.3843 19.6096 87.9409 19.4679 87.6453 19.1846C87.3496 18.9013 87.1526 18.5072 87.054 18.0022C86.7584 18.4333 86.3704 18.8089 85.8901 19.1292C85.422 19.4494 84.8061 19.6096 84.0425 19.6096C83.673 19.6096 83.3219 19.5665 82.9894 19.4802C82.6691 19.394 82.3858 19.2524 82.1395 19.0553C81.9054 18.8582 81.7145 18.6057 81.5667 18.2978C81.4312 17.9775 81.3635 17.5957 81.3635 17.1523ZM87.1095 15.046C86.7892 15.046 86.4751 15.0707 86.1672 15.1199C85.8593 15.1692 85.5821 15.2493 85.3358 15.3601C85.1018 15.4587 84.9108 15.5942 84.763 15.7666C84.6152 15.939 84.5413 16.1484 84.5413 16.3948C84.5413 16.6781 84.6275 16.8751 84.8 16.986C84.9847 17.0969 85.1818 17.1523 85.3912 17.1523C85.5883 17.1523 85.7854 17.1092 85.9824 17.023C86.1795 16.9367 86.352 16.8074 86.4998 16.635C86.6599 16.4502 86.7954 16.2285 86.9062 15.9698C87.0171 15.7112 87.0848 15.4032 87.1095 15.046ZM98.3756 17.2447C98.0676 17.7989 97.6919 18.2116 97.2485 18.4825C96.8051 18.7412 96.2508 18.8705 95.5857 18.8705C95.0807 18.8705 94.6188 18.7905 94.2 18.6303C93.7812 18.4702 93.424 18.2177 93.1284 17.8728C92.8328 17.528 92.5988 17.0969 92.4264 16.5795C92.2662 16.0499 92.1862 15.4217 92.1862 14.695C92.1862 14.1038 92.2478 13.4818 92.3709 12.829C92.4941 12.1638 92.7158 11.5541 93.0361 10.9998C93.3686 10.4456 93.8182 9.98984 94.3848 9.63264C94.9514 9.26313 95.6781 9.07837 96.5649 9.07837C96.9344 9.07837 97.2485 9.12148 97.5072 9.2077C97.7782 9.2816 98.006 9.3863 98.1908 9.52179C98.3879 9.65728 98.5418 9.8174 98.6527 10.0022C98.7759 10.1869 98.8682 10.384 98.9298 10.5934C98.9298 10.6057 98.9298 10.5626 98.9298 10.4641C98.9421 10.3532 98.9545 10.23 98.9668 10.0945C98.9791 9.95905 98.9853 9.82972 98.9853 9.70655C98.9976 9.57106 99.0037 9.48484 99.0037 9.44788C99.016 9.32471 99.0961 9.26313 99.2439 9.26313H100.094C100.734 9.26313 101.196 9.39862 101.479 9.66959C101.775 9.92826 101.923 10.4271 101.923 11.1661C101.923 11.2647 101.917 11.4925 101.904 11.8497C101.892 12.1946 101.867 12.6134 101.831 13.1061C101.806 13.5988 101.769 14.1469 101.72 14.7504C101.67 15.3417 101.615 15.939 101.553 16.5426C101.492 17.1461 101.424 17.725 101.35 18.2793C101.276 18.8336 101.196 19.3201 101.11 19.7389C101.024 20.1577 100.876 20.5641 100.667 20.9583C100.457 21.3524 100.162 21.7035 99.7797 22.0114C99.3979 22.3193 98.9052 22.5657 98.3017 22.7504C97.7104 22.9352 96.9837 23.0276 96.1215 23.0276C95.4687 23.0276 94.8959 22.966 94.4033 22.8428C93.9229 22.7197 93.5226 22.5534 93.2023 22.344C92.8821 22.1469 92.6357 21.919 92.4633 21.6604C92.3032 21.4017 92.2231 21.1431 92.2231 20.8844C92.2231 20.6504 92.2724 20.4471 92.3709 20.2747C92.4695 20.1022 92.5988 19.9606 92.7589 19.8497C92.919 19.7389 93.0915 19.6527 93.2762 19.5911C93.4733 19.5418 93.6581 19.5172 93.8305 19.5172C94.0399 19.5172 94.1939 19.5788 94.2924 19.7019C94.3909 19.8251 94.5018 19.9606 94.625 20.1084C94.7481 20.2685 94.9206 20.4102 95.1423 20.5334C95.364 20.6565 95.7089 20.7181 96.1769 20.7181C96.9899 20.7181 97.5565 20.4163 97.8767 19.8128C98.2093 19.2216 98.3756 18.3655 98.3756 17.2447ZM96.8236 16.4133C97.267 16.4133 97.6119 16.3086 97.8582 16.0992C98.1169 15.8898 98.314 15.6373 98.4495 15.3417C98.5849 15.046 98.6712 14.7381 98.7081 14.4179C98.7451 14.0976 98.7635 13.8205 98.7635 13.5865C98.7635 12.8474 98.6465 12.3239 98.4125 12.016C98.1908 11.6958 97.8521 11.5356 97.3963 11.5356C96.9406 11.5356 96.5834 11.6588 96.3247 11.9052C96.0661 12.1515 95.869 12.4471 95.7335 12.792C95.6103 13.1246 95.5303 13.4633 95.4933 13.8082C95.4564 14.1407 95.4379 14.3994 95.4379 14.5842C95.4379 15.2 95.5426 15.6619 95.752 15.9698C95.9614 16.2654 96.3186 16.4133 96.8236 16.4133ZM109.53 13.6788C109.456 13.6788 109.37 13.6788 109.271 13.6788C109.185 13.6665 109.099 13.6542 109.012 13.6419C108.926 13.6173 108.852 13.5926 108.791 13.568C108.729 13.531 108.698 13.4879 108.698 13.4387C108.698 13.2785 108.705 13.1307 108.717 12.9952C108.729 12.8597 108.735 12.7181 108.735 12.5703C108.735 12.2993 108.698 12.0776 108.624 11.9052C108.551 11.7327 108.403 11.6465 108.181 11.6465C107.836 11.6465 107.547 11.8744 107.313 12.3301C107.091 12.7735 106.949 13.4448 106.888 14.344C106.863 14.7381 106.826 15.1877 106.777 15.6927C106.74 16.1854 106.703 16.6658 106.666 17.1338C106.629 17.5895 106.598 17.996 106.574 18.3532C106.549 18.7104 106.537 18.9444 106.537 19.0553C106.537 19.1785 106.494 19.2708 106.407 19.3324C106.321 19.394 106.229 19.4248 106.13 19.4248H105.465C105.083 19.4248 104.769 19.3879 104.523 19.314C104.289 19.2277 104.098 19.1107 103.95 18.9629C103.815 18.8151 103.716 18.6365 103.654 18.4271C103.605 18.2054 103.581 17.9529 103.581 17.6696C103.581 17.4848 103.587 17.2262 103.599 16.8936C103.624 16.5487 103.661 16.0807 103.71 15.4895C103.759 14.8859 103.815 14.1284 103.876 13.2169C103.95 12.2932 104.036 11.1538 104.135 9.79892C104.159 9.44173 104.289 9.26313 104.523 9.26313H105.243C105.588 9.26313 105.878 9.30008 106.112 9.37398C106.346 9.44788 106.537 9.55258 106.685 9.68807C106.832 9.81124 106.937 9.95905 106.999 10.1315C107.073 10.3039 107.122 10.4825 107.146 10.6673C107.294 10.384 107.467 10.1438 107.664 9.94673C107.873 9.73734 108.089 9.57106 108.31 9.44788C108.532 9.3124 108.76 9.22002 108.994 9.17075C109.228 9.10916 109.444 9.07837 109.641 9.07837C109.875 9.07837 110.109 9.12148 110.343 9.2077C110.589 9.29392 110.811 9.42325 111.008 9.59569C111.205 9.76813 111.359 9.98984 111.47 10.2608C111.593 10.5318 111.654 10.852 111.654 11.2216C111.654 11.5541 111.605 11.8682 111.507 12.1638C111.408 12.4594 111.267 12.7243 111.082 12.9583C110.897 13.18 110.669 13.3586 110.398 13.4941C110.139 13.6173 109.85 13.6788 109.53 13.6788ZM111.78 17.1523C111.78 16.0437 112.279 15.1754 113.277 14.5472C114.275 13.919 115.747 13.5803 117.693 13.531C117.705 13.3955 117.711 13.2847 117.711 13.1985C117.723 13.0999 117.73 12.9829 117.73 12.8474C117.73 12.4533 117.656 12.1392 117.508 11.9052C117.36 11.6711 117.052 11.5541 116.584 11.5541C116.325 11.5541 116.116 11.5911 115.956 11.665C115.796 11.7389 115.666 11.8436 115.568 11.9791C115.469 12.1022 115.389 12.2562 115.328 12.441C115.266 12.6257 115.211 12.829 115.161 13.0507C115.137 13.1615 115.081 13.2354 114.995 13.2724C114.909 13.297 114.773 13.3093 114.589 13.3093C113.332 13.3093 112.704 12.8351 112.704 11.8867C112.704 11.5049 112.79 11.1415 112.963 10.7966C113.148 10.4517 113.412 10.1561 113.757 9.90978C114.115 9.65112 114.558 9.44788 115.088 9.30008C115.617 9.15227 116.233 9.07837 116.935 9.07837C118.302 9.07837 119.294 9.36166 119.91 9.92826C120.526 10.4948 120.834 11.2955 120.834 12.3301C120.834 12.4656 120.815 12.7119 120.778 13.0691C120.753 13.414 120.717 13.7835 120.667 14.1777C120.63 14.5595 120.593 14.9229 120.556 15.2678C120.532 15.6126 120.519 15.8528 120.519 15.9883C120.519 16.2962 120.575 16.5179 120.686 16.6534C120.797 16.7766 120.92 16.8628 121.055 16.9121C121.203 16.9614 121.332 16.9983 121.443 17.023C121.554 17.0476 121.61 17.1092 121.61 17.2077C121.61 17.4787 121.573 17.7558 121.499 18.0391C121.425 18.3224 121.302 18.5811 121.129 18.8151C120.969 19.0491 120.741 19.24 120.446 19.3879C120.162 19.5357 119.811 19.6096 119.392 19.6096C118.801 19.6096 118.358 19.4679 118.062 19.1846C117.767 18.9013 117.57 18.5072 117.471 18.0022C117.175 18.4333 116.787 18.8089 116.307 19.1292C115.839 19.4494 115.223 19.6096 114.459 19.6096C114.09 19.6096 113.739 19.5665 113.406 19.4802C113.086 19.394 112.803 19.2524 112.556 19.0553C112.322 18.8582 112.131 18.6057 111.984 18.2978C111.848 17.9775 111.78 17.5957 111.78 17.1523ZM117.526 15.046C117.206 15.046 116.892 15.0707 116.584 15.1199C116.276 15.1692 115.999 15.2493 115.753 15.3601C115.519 15.4587 115.328 15.5942 115.18 15.7666C115.032 15.939 114.958 16.1484 114.958 16.3948C114.958 16.6781 115.044 16.8751 115.217 16.986C115.402 17.0969 115.599 17.1523 115.808 17.1523C116.005 17.1523 116.202 17.1092 116.399 17.023C116.596 16.9367 116.769 16.8074 116.917 16.635C117.077 16.4502 117.212 16.2285 117.323 15.9698C117.434 15.7112 117.502 15.4032 117.526 15.046ZM125.947 16.0992C125.91 16.6658 125.867 17.2077 125.818 17.725C125.769 18.23 125.732 18.6735 125.707 19.0553C125.695 19.2031 125.664 19.3016 125.615 19.3509C125.565 19.4002 125.461 19.4248 125.301 19.4248H124.635C124.254 19.4248 123.94 19.3879 123.693 19.314C123.459 19.2277 123.268 19.1107 123.12 18.9629C122.985 18.8151 122.886 18.6365 122.825 18.4271C122.776 18.2054 122.751 17.9529 122.751 17.6696C122.751 17.4848 122.757 17.2262 122.769 16.8936C122.794 16.5487 122.831 16.0807 122.88 15.4895C122.93 14.8859 122.985 14.1284 123.047 13.2169C123.12 12.2932 123.207 11.1538 123.305 9.79892C123.317 9.52795 123.348 9.36782 123.398 9.31855C123.435 9.2816 123.533 9.26313 123.693 9.26313H124.414C124.783 9.26313 125.085 9.30624 125.319 9.39246C125.553 9.47868 125.744 9.58953 125.892 9.72502C126.04 9.86051 126.144 10.0206 126.206 10.2054C126.267 10.3901 126.304 10.5811 126.317 10.7781C126.674 10.113 127.08 9.66344 127.536 9.42941C127.992 9.19538 128.528 9.07837 129.144 9.07837C129.476 9.07837 129.796 9.10916 130.104 9.17075C130.412 9.23233 130.689 9.33703 130.936 9.48484C131.182 9.63264 131.391 9.82972 131.564 10.0761C131.736 10.3101 131.859 10.6119 131.933 10.9814C132.315 10.267 132.734 9.77429 133.19 9.50331C133.645 9.22002 134.218 9.07837 134.908 9.07837C135.29 9.07837 135.653 9.12148 135.998 9.2077C136.355 9.2816 136.663 9.41709 136.922 9.61417C137.18 9.81124 137.384 10.0822 137.532 10.4271C137.692 10.7597 137.772 11.1784 137.772 11.6835C137.772 12.0653 137.753 12.5333 137.716 13.0876C137.679 13.6419 137.636 14.2454 137.587 14.8982C137.538 15.5387 137.482 16.2039 137.421 16.8936C137.359 17.5711 137.31 18.2239 137.273 18.8521C137.261 18.9875 137.248 19.0922 137.236 19.1661C137.224 19.24 137.199 19.2955 137.162 19.3324C137.137 19.3694 137.094 19.394 137.033 19.4063C136.971 19.4186 136.885 19.4248 136.774 19.4248H136.183C135.789 19.4248 135.468 19.3879 135.222 19.314C134.976 19.24 134.785 19.1354 134.649 18.9999C134.514 18.8644 134.415 18.6981 134.354 18.501C134.304 18.2916 134.28 18.0576 134.28 17.7989C134.28 17.6388 134.286 17.4109 134.298 17.1153C134.323 16.8197 134.348 16.4995 134.372 16.1546C134.409 15.8097 134.44 15.4525 134.465 15.083C134.502 14.7135 134.532 14.3748 134.557 14.0668C134.594 13.7466 134.619 13.4694 134.631 13.2354C134.655 13.0014 134.668 12.8474 134.668 12.7735C134.668 12.4533 134.6 12.17 134.465 11.9236C134.341 11.6773 134.095 11.5541 133.726 11.5541C133.405 11.5541 133.128 11.6588 132.894 11.8682C132.66 12.0776 132.463 12.3671 132.303 12.7366C132.143 13.1061 132.013 13.5433 131.915 14.0484C131.816 14.5534 131.749 15.1015 131.712 15.6927C131.687 16.0745 131.656 16.5118 131.619 17.0045C131.582 17.4972 131.539 18.113 131.49 18.8521C131.478 18.9875 131.465 19.0922 131.453 19.1661C131.441 19.24 131.416 19.2955 131.379 19.3324C131.354 19.3694 131.311 19.394 131.25 19.4063C131.188 19.4186 131.102 19.4248 130.991 19.4248H130.4C130.006 19.4248 129.685 19.3879 129.439 19.314C129.193 19.24 129.002 19.1354 128.866 18.9999C128.731 18.8644 128.632 18.6981 128.571 18.501C128.522 18.2916 128.497 18.0576 128.497 17.7989C128.497 17.5526 128.515 17.1954 128.552 16.7273C128.602 16.247 128.645 15.7543 128.682 15.2493C128.731 14.732 128.774 14.2454 128.811 13.7897C128.86 13.3216 128.885 12.9829 128.885 12.7735C128.885 12.4533 128.817 12.17 128.682 11.9236C128.558 11.6773 128.312 11.5541 127.943 11.5541C127.61 11.5541 127.327 11.6773 127.093 11.9236C126.859 12.17 126.662 12.5025 126.501 12.9213C126.354 13.3278 126.231 13.8082 126.132 14.3624C126.046 14.9167 125.984 15.4956 125.947 16.0992Z" fill="#4080FF"/>
</svg>
